<?xml version="1.0" standalone="no"?>
<!DOCTYPE svg PUBLIC "-//W3C//DTD SVG 1.1//EN" "http://www.w3.org/Graphics/SVG/1.1/DTD/svg11.dtd" >
<svg xmlns="http://www.w3.org/2000/svg">
<metadata>
This is a custom SVG webfont generated by Font Squirrel.
Copyright   : Typeface  your company 2008 All Rights Reserved
</metadata>
<defs>
<font id="extravaganzzaBold" horiz-adv-x="1014" >
<font-face units-per-em="2048" ascent="1638" descent="-410" />
<missing-glyph horiz-adv-x="508" />
<glyph unicode=" "  horiz-adv-x="508" />
<glyph unicode="&#x09;" horiz-adv-x="508" />
<glyph unicode="&#xa0;" horiz-adv-x="508" />
<glyph unicode="!" horiz-adv-x="672" d="M200 1324q17 16 32 16h192q22 0 36 -24q-22 -952 -32 -952q-7 -24 -52 -24h-92q-56 0 -56 44q-7 0 -28 940zM200 128v20q0 77 100 116l32 4h4q93 0 132 -104v-36q0 -86 -96 -124l-32 -4h-12q-86 0 -124 96z" />
<glyph unicode="&#x22;" horiz-adv-x="672" d="M101 1500q0 37 20.5 57t59.5 20t60.5 -19.5t21.5 -56.5q0 -8 -4 -34l-62 -359h-30l-62 359q-4 23 -4 33zM413 1500q0 37 20.5 57t59.5 20t60.5 -19.5t21.5 -56.5q0 -8 -4 -34l-62 -359h-30l-62 359q-4 23 -4 33z" />
<glyph unicode="#" horiz-adv-x="1336" d="M117 472l30 98h271l86 290h-295l29 97h295l140 477h93l-141 -477h242l142 477h92l-141 -477h259l-29 -97h-259l-83 -290h279l-30 -98h-280l-140 -472h-92l139 472h-240l-142 -472h-92l140 472h-273zM511 569h242l86 290h-243z" />
<glyph unicode="$" d="M150 180q22 104 84 104l152 -48l76 -8h20q159 0 212 132l8 48v16q0 150 -280 244q-256 108 -256 316q0 230 276 304h16v128q11 68 56 68h12q35 0 52 -60v-36q10 -108 100 -108q152 -35 152 -56q-25 -96 -88 -96q-102 40 -204 40q-137 0 -188 -100q-16 -33 -16 -68 q0 -137 268 -228q272 -115 272 -344q0 -216 -236 -312l-72 -16v-136q-12 -64 -52 -64h-16q-56 0 -56 136q0 52 -100 76q-73 0 -192 68z" />
<glyph unicode="%" horiz-adv-x="1610" d="M100 892v24q0 289 236 376l76 8q241 0 284 -336v-56q0 -280 -220 -372l-64 -8h-32q-185 0 -264 236q-16 62 -16 128zM236 900q0 -205 116 -260l36 -8h24q107 0 144 212l4 72q0 203 -100 264q-40 16 -64 16q-135 0 -160 -260v-36zM384 4l712 1252q40 44 76 44h4 q28 0 28 -28t-140 -260l-552 -972q-42 -40 -72 -40h-48l-4 4h-4zM916 380q0 275 196 376q48 24 112 24q236 0 284 -300l4 -64v-32q0 -261 -196 -356q-44 -20 -104 -20q-214 0 -284 260zM1052 388q0 -195 104 -260q29 -16 64 -16h8q100 0 140 180l12 100q0 213 -108 272 l-60 12q-138 0 -160 -272v-16z" />
<glyph unicode="&#x26;" horiz-adv-x="1683" d="M330 332v32q0 217 252 364q-108 143 -108 284q0 205 216 296q44 16 104 16h20q198 0 272 -196l8 -80q0 -212 -280 -344l-4 -4v-4q230 -276 288 -324l12 -4q45 0 92 172q27 66 48 172h152v-4q0 -101 -100 -348q-35 -66 -84 -128l212 -228l-4 -4h-196l-120 120h-4 q-176 -140 -356 -140h-40q-246 0 -356 228q-24 69 -24 124zM490 368q0 -172 184 -248l88 -12q115 0 224 84q12 15 12 36v4q0 31 -76 104l-264 296q-168 -111 -168 -264zM630 1016q0 -113 100 -228q212 117 212 244v12q0 129 -124 160l-28 4q-64 0 -116 -56q-44 -58 -44 -136 z" />
<glyph unicode="'" horiz-adv-x="346" d="M101 1500q0 37 20.5 57t59.5 20t60.5 -19.5t21.5 -56.5q0 -8 -4 -34l-62 -359h-30l-62 359q-4 23 -4 33z" />
<glyph unicode="(" horiz-adv-x="758" d="M170 646v44q0 456 268 804l28 4h104q64 0 64 -40l-96 -152q-148 -285 -148 -616v-32q0 -411 240 -756l4 -16q0 -36 -84 -36h-52q-70 0 -80 28q-248 344 -248 768z" />
<glyph unicode=")" horiz-adv-x="758" d="M180 -136q0 9 92 152q148 296 148 584v84q0 394 -240 736v24q0 24 60 24h104q41 0 88 -88q208 -307 208 -728v-12q0 -478 -272 -816l-64 -4h-44q-80 0 -80 36v8z" />
<glyph unicode="*" horiz-adv-x="1024" d="M133 1148v16q0 37 56 48l224 -24q-143 186 -148 208v20q0 41 60 52q56 0 108 -156q38 -83 44 -84q96 236 120 236l20 4h16q40 0 48 -56v-8q0 -23 -148 -212v-4h4l224 24q60 -9 60 -56t-64 -60l-224 24v-4q144 -179 144 -188l4 -20v-12q0 -39 -60 -52q-59 0 -104 148 l-40 92h-8q-77 -176 -108 -224q-21 -16 -36 -16h-12q-48 10 -48 48v20q0 21 152 212h-4l-228 -24q-52 10 -52 48z" />
<glyph unicode="+" d="M-30 606v84q0 52 76 52h320q40 0 40 36v356q0 60 56 60h92q52 0 52 -72v-348q0 -32 32 -32h332q68 0 68 -44l4 -36v-36q0 -76 -48 -76h-348q-40 0 -40 -32v-352q0 -72 -52 -72l-56 -4q-92 0 -92 48v368q0 44 -44 44h-332q-60 0 -60 56z" />
<glyph unicode="," horiz-adv-x="557" d="M98 -196q52 150 116 460q75 12 132 12q27 0 36 -40q0 -22 -136 -364q-50 -68 -132 -68h-16z" />
<glyph unicode="-" horiz-adv-x="670" d="M88 492v12q0 45 68 56h340q68 -11 68 -56v-16q0 -50 -92 -56h-296q-88 7 -88 60z" />
<glyph unicode="." horiz-adv-x="557" d="M220 80v16q16 80 80 80h16q68 0 80 -92q0 -71 -92 -84q-84 16 -84 80z" />
<glyph unicode="/" horiz-adv-x="569" d="M-80 -2q0 29 284 756q240 632 264 676q20 12 52 12h92q43 0 56 -24q0 -26 -468 -1228q-75 -211 -100 -220h-140q-40 3 -40 28z" />
<glyph unicode="0" d="M50 664v40q0 497 324 644q69 24 136 24h32q261 0 384 -324q52 -148 52 -352v-8q0 -523 -324 -664q-72 -24 -152 -24q-292 0 -412 372q-40 135 -40 292zM294 696q0 -390 164 -476l60 -12q175 0 208 376l4 104q0 476 -220 476q-159 0 -208 -352z" />
<glyph unicode="1" d="M240 1140v16q31 38 252 148q40 24 52 24h128q60 0 60 -56v-1204q0 -68 -52 -68h-128q-60 0 -60 56v976q0 13 -12 28q-161 -84 -172 -84h-4q-38 0 -56 124q-7 0 -8 40z" />
<glyph unicode="2" d="M100 68v76q0 29 180 192q420 454 420 592q0 143 -116 192q-40 12 -96 16q-114 0 -256 -108h-12q-42 0 -88 168v8q166 148 376 148h28q297 0 396 -284l12 -92v-44q0 -218 -460 -704l8 -8h412q72 0 72 -48v-100q0 -72 -64 -72h-724q-84 0 -84 36z" />
<glyph unicode="3" d="M70 112v12q29 152 92 152h16l164 -52l80 -8h36q161 0 212 152l8 48q0 148 -176 200q-51 16 -156 16h-40q-48 0 -48 68v64q0 72 52 72q320 0 320 168v16q0 119 -152 136l-28 4q-94 0 -248 -84h-8q-36 0 -68 140q9 51 116 112q118 44 228 44h28q292 0 376 -260l8 -80 q0 -168 -168 -288q216 -113 216 -332q0 -276 -308 -388q-104 -24 -188 -24q-192 0 -348 88z" />
<glyph unicode="4" d="M0 396v96q0 20 280 412q256 372 296 420l40 4h140q64 0 64 -64v-684q0 -28 28 -28h56q84 0 84 -36q8 -17 8 -64v-12q0 -96 -36 -96l-36 -4h-72q-22 0 -32 -20v-236q0 -84 -48 -84h-132q-56 0 -56 44l-4 36v240q-10 20 -32 20h-484q-64 0 -64 56zM296 560l8 -8h248 q28 0 28 28v376h-12q0 -14 -272 -388v-8z" />
<glyph unicode="5" d="M70 100v20q44 164 64 164h20q144 -68 268 -68q176 0 244 164l8 56v28q0 161 -196 212l-124 12l-168 -12q-44 8 -44 32q79 632 92 632q26 12 56 12h548q60 0 60 -56l4 -40v-24q0 -96 -36 -96l-40 -4h-380q-33 0 -40 -60l-20 -160q0 -23 140 -28q180 -29 256 -96 q144 -126 144 -324q0 -310 -332 -440q-110 -24 -172 -24q-221 0 -352 100z" />
<glyph unicode="6" d="M50 548v48q0 312 204 548q219 224 552 224h32q24 -12 24 -64v-116q-5 -36 -36 -36h-52q-216 0 -364 -172q-64 -90 -68 -116v-4h4q146 60 208 60h40q219 0 348 -224q44 -100 44 -192v-40q0 -252 -228 -408q-156 -56 -220 -56q-142 16 -328 128q-160 158 -160 420zM294 512 q0 -178 128 -276q55 -28 104 -28h16q157 0 196 232v40q0 188 -180 232h-56q-127 0 -200 -144l-8 -48v-8z" />
<glyph unicode="7" d="M100 1168v100q0 60 56 60h748q64 0 64 -64v-84q-12 -43 -552 -1160q-15 -20 -32 -20h-172q-44 0 -44 36q0 14 504 1040l8 24q-2 12 -32 12h-500q-48 0 -48 56z" />
<glyph unicode="8" d="M30 368v20q0 207 204 324v4q-156 119 -156 280v16q0 209 232 324q93 36 176 36h28q245 0 356 -196q36 -65 36 -144v-8q0 -169 -160 -292q208 -126 208 -336q0 -245 -264 -360q-87 -36 -176 -36h-44q-282 0 -412 236q-28 69 -28 132zM282 376q0 -114 144 -168l64 -8 q154 0 204 128l8 48v20q0 157 -236 220q-184 -70 -184 -208v-32zM314 1004q0 -125 200 -184q152 67 152 188v8q0 138 -172 156q-134 0 -176 -128z" />
<glyph unicode="9" d="M80 872v32q0 222 192 380q122 88 260 88h28q278 0 400 -308q40 -108 40 -264q0 -515 -392 -724q-230 -76 -384 -76q-40 0 -40 96v16q0 104 24 104h8v4l40 -4h20q314 0 436 304v4h-4q-145 -56 -204 -56h-36q-230 0 -356 240q-32 91 -32 164zM324 908v-8q0 -150 116 -208 q41 -20 92 -20q150 0 216 136l4 28q0 216 -120 284q-76 44 -104 44q-204 -67 -204 -256z" />
<glyph unicode=":" horiz-adv-x="557" d="M129 80v16q16 80 80 80h16q68 0 80 -92q0 -71 -92 -84q-84 16 -84 80zM129 751v16q16 80 80 80h16q68 0 80 -92q0 -71 -92 -84q-84 16 -84 80z" />
<glyph unicode=";" horiz-adv-x="557" d="M119 -196q52 150 116 460q75 12 132 12q27 0 36 -40q0 -22 -136 -364q-50 -68 -132 -68h-16zM241 751v16q16 80 80 80h16q68 0 80 -92q0 -71 -92 -84q-84 16 -84 80z" />
<glyph unicode="&#x37e;" horiz-adv-x="557" d="M119 -196q52 150 116 460q75 12 132 12q27 0 36 -40q0 -22 -136 -364q-50 -68 -132 -68h-16zM241 751v16q16 80 80 80h16q68 0 80 -92q0 -71 -92 -84q-84 16 -84 80z" />
<glyph unicode="&#x3c;" d="M87 674v83l840 484v-167l-625 -359l625 -355v-167z" />
<glyph unicode="=" d="M-30 518v64q0 64 56 64h940q72 0 72 -48l4 -36v-28q0 -80 -48 -80l-64 -4h-860q-96 0 -96 36zM-30 886v76q0 60 56 60h952q64 0 64 -56v-60q0 -76 -60 -76h-948q-64 0 -64 56z" />
<glyph unicode="&#x3e;" d="M87 193v167l625 355l-625 359v167l840 -484v-83z" />
<glyph unicode="?" horiz-adv-x="748" d="M90 1160v20q0 74 196 104l48 4h28q225 0 296 -204l8 -60v-32q0 -154 -204 -372q-72 -108 -72 -224v-16q-10 -48 -72 -48q-80 7 -80 28q0 239 156 404q96 123 96 204v28q0 111 -128 148l-56 4q-88 0 -192 -56h-4zM230 92q16 84 80 84h16q80 -16 80 -80v-16q0 -67 -88 -80 q-76 0 -88 92z" />
<glyph unicode="@" horiz-adv-x="2019" d="M100 508q0 242 124 464.5t345.5 342t456.5 119.5q362 0 609 -230t247 -566q0 -270 -176 -439q-175 -168 -346 -170q-63 1 -100.5 18t-61.5 54q-29 -37 -82 -64.5t-133 -27.5q-144 0 -256.5 100.5t-112.5 233.5q1 87 53 166.5t132.5 115t173.5 49.5q67 16 110 42.5 t43 74.5q-2 69 -41 125t-129 56q-72 0 -121.5 -59t-50.5 -125h-45v159q0 20 72 40q73 20 178 20q109 -2 193.5 -64.5t84.5 -157.5v-589q0 -117 94 -117q185 35 267 191.5t82 382.5q-20 335 -232 540q-197 188 -480 188q-205 0 -392.5 -137.5t-269.5 -355.5 q-67 -178 -67 -361q0 -313 129.5 -511.5t305 -290.5t318.5 -92q274 0 575 208v-75q-263 -184 -571 -184q-240 0 -461 122.5t-343 342t-122 461.5zM753 343q0 -107 64 -194t183 -87q97 5 126 167v476q-54 -63 -154 -83q-83 -10 -151 -80t-68 -199z" />
<glyph unicode="A" horiz-adv-x="1402" d="M100 24q0 36 168 524q264 779 284 816q20 12 52 12h168q53 0 80 -128q380 -1094 412 -1216v-8q-9 -24 -76 -24h-112q-64 0 -64 32q-16 21 -128 360q-17 16 -40 16h-340q-42 0 -64 -112q-90 -275 -108 -284q0 -12 -56 -12h-100q-76 0 -76 24zM544 632q5 -16 36 -16h196 q30 0 32 12v8l-128 392h-4q-7 0 -52 -156q-40 -99 -80 -240z" />
<glyph unicode="B" horiz-adv-x="1219" d="M170 76v1232q0 64 44 64q129 24 276 24h48q338 0 448 -212q32 -64 32 -152q0 -100 -152 -272v-12q200 -174 200 -332q0 -198 -160 -312q-64 -40 -288 -84l-152 -20q-292 0 -292 36zM414 600v-356q0 -36 44 -36h52q248 0 292 152l8 56v12q0 173 -292 204h-84 q-20 -10 -20 -32zM414 872q0 -22 20 -32h72q102 0 236 108q28 39 28 68v12q0 104 -112 144q-54 16 -108 16h-20l-4 4l-4 -4h-64q-44 0 -44 -36v-280z" />
<glyph unicode="C" horiz-adv-x="1399" d="M160 672v44q0 406 364 624q163 80 332 80h44q324 -20 324 -96q-28 -168 -92 -168q-147 48 -248 48q-311 0 -428 -268q-40 -105 -40 -224v-16q0 -323 264 -440q92 -32 168 -32h52q104 0 256 52h4q31 0 56 -148q0 -49 -160 -108q-115 -16 -216 -20q-383 0 -580 304 q-100 173 -100 368z" />
<glyph unicode="D" horiz-adv-x="1518" d="M200 40v1276q0 56 44 56q168 24 324 24h52q518 0 680 -396q44 -139 44 -268q0 -477 -388 -660q-176 -72 -392 -72h-56q-304 0 -304 36zM444 1176v-960l88 -4h40q356 0 472 264q44 107 44 228v44q0 327 -312 420q-81 16 -184 20z" />
<glyph unicode="E" horiz-adv-x="1151" d="M170 48v1268q0 60 56 60h660q60 0 60 -56l4 -40v-24q0 -92 -32 -92l-36 -4h-424q-44 0 -44 -36v-264q0 -36 44 -36h412q48 0 48 -64v-100q0 -52 -84 -52h-400q-20 -10 -20 -32v-324q0 -22 20 -32h456q84 0 84 -44l4 -40v-60q0 -76 -64 -76h-672q-72 0 -72 48z" />
<glyph unicode="F" horiz-adv-x="1079" d="M190 48v1268q0 60 56 60h660q60 0 60 -56v-96q0 -64 -56 -64h-432q-44 0 -44 -36v-280q0 -40 40 -40h388q64 0 64 -56v-88q0 -68 -40 -68l-32 -4h-388q-32 0 -32 -32v-480q0 -76 -52 -76h-120q-72 0 -72 48z" />
<glyph unicode="G" horiz-adv-x="1387" d="M110 672v44q0 396 364 608q177 80 360 80h40q340 -23 340 -96q-42 -176 -64 -176h-16q-140 48 -200 48l-84 8q-328 0 -448 -276q-36 -88 -36 -188v-56q0 -247 212 -392q126 -60 256 -60q131 8 176 24v292q0 32 -44 32h-172q-48 0 -48 80v44q0 84 44 84l40 4h332 q88 0 88 -40l4 -56v-508q0 -100 -28 -100q-227 -72 -408 -72q-487 0 -656 396q-52 145 -52 276z" />
<glyph unicode="H" horiz-adv-x="1579" d="M310 48v1268q0 60 56 60h128q60 0 60 -56v-452q0 -36 44 -36h464q44 0 44 36v448q0 60 56 60h128q60 0 60 -56l4 -40v-1192q0 -88 -56 -88h-120q-72 0 -72 48v520q0 40 -32 40h-500q-20 -10 -20 -32v-512q0 -64 -56 -64h-116q-72 0 -72 48z" />
<glyph unicode="I" horiz-adv-x="657" d="M230 48v1268q0 60 56 60h128q60 0 60 -56v-1252q0 -68 -56 -68h-116q-72 0 -72 48z" />
<glyph unicode="J" horiz-adv-x="657" d="M-30 56v8q18 180 52 180h12q79 -24 140 -24h8q110 0 152 72q40 65 40 216v852q5 36 36 36h184l24 -24v-920q0 -326 -188 -412q-97 -40 -228 -40h-24q-165 0 -208 56z" />
<glyph unicode="K" horiz-adv-x="1382" d="M260 36v1316l24 24h184q36 -5 36 -36v-512q411 507 452 548h236l24 -24v-28l-456 -540v-4q424 -620 492 -732l4 -4v-4q-9 -40 -40 -40h-200q-31 0 -120 152q-198 286 -308 460q-31 -27 -84 -96v-480q-5 -36 -36 -36h-172q-36 5 -36 36z" />
<glyph unicode="L" horiz-adv-x="1128" d="M200 36v1316l24 24h184q36 -5 36 -36v-1120h516q40 -8 40 -40v-140q-5 -40 -40 -40h-724q-36 5 -36 36z" />
<glyph unicode="M" horiz-adv-x="1798" d="M200 24q0 80 88 1316q0 36 68 36h176q50 0 72 -104q184 -495 288 -844h4q11 5 64 184q256 709 276 748q18 16 56 16h168q60 0 60 -56q80 -1213 80 -1300q-16 -20 -64 -20h-104q-64 0 -64 28q-16 0 -56 900h-8q-300 -865 -328 -900q0 -20 -64 -20h-68q-54 0 -72 52 l-280 848l-8 -8q-41 -888 -60 -888q-37 -12 -68 -12h-96q-60 0 -60 24z" />
<glyph unicode="N" horiz-adv-x="1554" d="M260 48v1268q0 60 56 60h176q44 -41 180 -268q264 -408 404 -652h4l4 4l-4 24l-4 484v336q0 72 48 72h136q52 0 52 -72v-1232q0 -72 -52 -72h-136q-52 0 -72 48q-388 612 -556 904h-4l-4 -12l4 -16l4 -636v-200q0 -84 -44 -84l-36 -4h-84q-72 0 -72 48z" />
<glyph unicode="O" horiz-adv-x="1614" d="M170 676v40q0 422 348 636q141 68 276 68h36q327 0 512 -300q96 -174 96 -396q0 -453 -348 -652q-144 -72 -296 -72q-258 0 -448 196q-176 207 -176 480zM430 684q0 -271 204 -424q83 -44 176 -44q239 0 344 296q28 128 28 200q0 290 -192 440q-92 56 -184 56 q-248 0 -352 -308q-24 -104 -24 -160v-56z" />
<glyph unicode="P" horiz-adv-x="1120" d="M160 56v1236q0 68 40 68q131 24 288 24h52q352 0 464 -248q32 -69 32 -168v-12q0 -313 -324 -420q-89 -28 -204 -28h-76q-28 0 -28 -28v-412q0 -68 -52 -68h-132q-60 0 -60 56zM404 760q0 -40 76 -40h12q300 0 300 240q0 147 -140 196q-51 15 -128 20q-116 0 -116 -28 l-4 -20v-368z" />
<glyph unicode="Q" horiz-adv-x="1614" d="M180 648v36q0 394 300 608q154 96 332 96h28q350 0 536 -352q68 -163 68 -348q0 -409 -288 -604h-4v-4q0 -13 268 -60q32 -11 32 -36v-4q-41 -180 -88 -180q-147 36 -568 168q-284 0 -480 244q-136 191 -136 436zM432 668q0 -232 140 -384q103 -100 236 -100 q256 0 356 300q24 106 24 196v8q0 326 -236 460q-79 24 -132 24q-242 0 -348 -264q-40 -147 -40 -240z" />
<glyph unicode="R" horiz-adv-x="1283" d="M180 56v1240q0 64 44 64q131 24 288 24h60q357 0 460 -244q24 -69 24 -136v-16q0 -128 -184 -320l-4 -16l60 -88q69 -88 132 -404l44 -124q0 -36 -56 -36h-136q-64 0 -64 40q-31 69 -96 348q-99 172 -236 172h-72q-20 -10 -20 -32v-464q0 -64 -56 -64h-128q-60 0 -60 56z M424 800q0 -22 20 -32h88q106 0 244 120q36 50 36 88q0 153 -164 192l-100 12q-124 0 -124 -36v-344z" />
<glyph unicode="S" horiz-adv-x="1085" d="M130 120v4q42 176 64 176h12l116 -48q102 -36 196 -36q160 0 216 128l8 48v24q0 136 -276 228q-308 136 -308 352v44q0 195 196 316q112 60 252 60h32q174 0 296 -76l8 -28q-50 -172 -72 -172h-8l-144 48q-46 12 -96 12h-20q-142 0 -192 -112l-8 -48q0 -141 268 -220 q324 -132 324 -404q0 -291 -316 -396q-87 -20 -140 -20h-68q-165 0 -320 84q-20 21 -20 36z" />
<glyph unicode="T" horiz-adv-x="1350" d="M180 1204v112q0 60 56 60h920q60 0 60 -56l4 -40v-32q0 -88 -40 -88l-36 -4h-292q-32 0 -32 -40v-1060q0 -56 -64 -56h-108q-72 0 -72 48v1064q0 44 -32 44h-292q-72 0 -72 48z" />
<glyph unicode="U" horiz-adv-x="1501" d="M180 596v740q0 60 56 60h128q60 0 60 -56l4 -40v-712q0 -248 136 -344q80 -32 128 -32q276 0 276 408v716q0 60 56 60h128q64 0 64 -64v-660q0 -343 -248 -580q-129 -92 -268 -92h-24q-344 0 -468 412q-28 104 -28 184z" />
<glyph unicode="V" horiz-adv-x="1289" d="M50 1352q6 24 48 24h164q45 0 64 -88q196 -613 284 -912h8q108 350 332 984q18 16 56 16h140q43 0 56 -24q0 -27 -468 -1324q-14 -28 -68 -28h-124q-68 0 -68 40q-424 1262 -424 1312z" />
<glyph unicode="W" horiz-adv-x="2030" d="M190 1352q0 21 40 24h164q51 0 68 -104l192 -836h8q224 881 248 928q20 12 52 12h132q64 0 64 -64q140 -562 208 -868h4q208 831 244 920q20 12 52 12h144q40 0 40 -32q-20 -106 -332 -1188q-31 -152 -72 -152l-32 -4h-112q-68 0 -68 36q-20 45 -216 888q-12 -8 -84 -304 l-172 -604q-21 -16 -68 -16h-108q-64 0 -64 36q-12 20 -208 796q-124 482 -124 520z" />
<glyph unicode="X" horiz-adv-x="1350" d="M130 36v4q16 39 380 640l4 16q-8 34 -344 588l-24 60q0 32 60 32h184q43 -37 140 -228l140 -240q14 0 100 164q153 267 184 300l36 4h152q64 0 64 -32q0 -21 -376 -612q-3 -24 -8 -24q0 -23 188 -320q177 -291 204 -352v-4q0 -32 -80 -32h-132q-60 0 -80 64 q-244 417 -256 424h-4q-19 -14 -144 -248q-109 -204 -136 -232q-18 -8 -52 -8h-120q-80 0 -80 36z" />
<glyph unicode="Y" horiz-adv-x="1233" d="M60 1340v4q0 32 56 32h172q40 0 112 -172q16 -20 196 -384l4 -4h4q12 0 72 132q205 396 224 420q16 8 44 8h148q64 0 64 -36q-23 -53 -428 -744l-8 -36v-464q0 -92 -44 -92l-32 -4h-100q-72 0 -72 48v484q0 70 -96 216q-316 579 -316 592z" />
<glyph unicode="Z" horiz-adv-x="1124" d="M90 48v92q0 16 240 364l436 636v8q-4 12 -24 12h-532q-56 0 -56 44l-4 36v60q0 76 48 76h844q64 0 64 -56v-80q0 -23 -240 -368q-413 -601 -436 -644l12 -8h584q84 0 84 -36l4 -32v-84q0 -68 -56 -68h-896q-72 0 -72 48z" />
<glyph unicode="[" horiz-adv-x="758" />
<glyph unicode="\" horiz-adv-x="569" d="M-219 1346q9 44 50 44h21q31 0 85 -40q32 -41 635 -1304v-20q0 -31 -45 -36h-10q-55 0 -106 52q-610 1243 -630 1304z" />
<glyph unicode="]" horiz-adv-x="758" />
<glyph unicode="^" />
<glyph unicode="_" horiz-adv-x="1024" d="M0 -140q26 36 64 36h836q55 0 64 -44v-8q-9 -44 -60 -44h-848q-29 0 -56 36v24z" />
<glyph unicode="`" horiz-adv-x="1024" d="M212 1363q0 31 20.5 51t53.5 20q20 0 40.5 -12t55.5 -47l291 -296h-69l-330 202q-31 20 -46.5 40t-15.5 42z" />
<glyph unicode="a" horiz-adv-x="1048" d="M100 300v32q0 167 180 276q157 84 380 84v4q-23 152 -152 152h-40q-95 0 -220 -68h-4q-40 0 -68 120v4q0 52 96 104q105 44 228 44h36q267 0 352 -268q16 -67 16 -132v-272q0 -203 16 -320q0 -40 -44 -40h-100q-80 0 -80 32q-6 0 -12 32h-8q-111 -53 -180 -76l-76 -8 q-243 0 -316 244zM304 332q16 -128 104 -128h32q73 0 148 72q36 55 36 100v120h-12q-221 0 -292 -108q-12 -20 -16 -56z" />
<glyph unicode="b" horiz-adv-x="1123" d="M80 104l4 300v1004q0 60 56 60h128q60 0 60 -56v-428q0 -20 16 -24q192 88 308 88h20q112 0 236 -120q136 -159 136 -352v-64q0 -292 -248 -456q-110 -56 -208 -56q-100 0 -272 100h-12q0 -76 -64 -76h-100q-37 0 -60 80zM328 568v-96q0 -175 136 -240q52 -16 76 -16h24 q150 0 212 180q20 57 20 136q0 225 -160 296q-37 12 -68 12h-16q-157 0 -216 -184q-8 -34 -8 -88z" />
<glyph unicode="c" horiz-adv-x="905" d="M30 496v32q0 307 284 468q122 52 244 52h28q140 0 244 -56q12 -14 12 -32q-32 -164 -80 -164h-4q-99 40 -180 40h-16q-209 0 -276 -228l-8 -88q0 -227 204 -296q50 -12 88 -12q69 0 196 44h24q20 0 44 -136q0 -54 -128 -104q-86 -16 -140 -16h-64q-264 0 -416 252 q-56 123 -56 244z" />
<glyph unicode="d" horiz-adv-x="1146" d="M80 504v32q0 297 240 464q106 56 220 56q133 0 240 -80v404q0 84 36 84l32 4h120q60 0 60 -56v-1068l8 -288q0 -15 -24 -32h-144q-64 0 -64 64q0 16 -8 16l-152 -76q-63 -20 -128 -28q-331 0 -428 396zM328 540v-28q0 -229 180 -288l56 -8q156 0 212 184l4 40v144 q0 120 -148 244q-40 16 -68 16q-156 0 -216 -184q-20 -52 -20 -120z" />
<glyph unicode="e" horiz-adv-x="1002" d="M50 500v24q0 311 252 472q103 52 216 52h24q287 0 388 -320q20 -71 20 -168q0 -104 -48 -104l-36 -4h-552l-8 -8v-8q-1 -12 -1 -24q0 -156 265 -204h20q112 0 240 48q44 0 60 -152v-32q-52 -43 -336 -72q-311 28 -404 197q-104 131 -104 256q0 24 4 47zM306 672 q8 -18 16 -20h352q28 0 28 24q-39 172 -172 172h-24q-113 0 -200 -176z" />
<glyph unicode="f" horiz-adv-x="799" d="M50 872v80q0 60 56 60h56q20 0 20 8q49 330 144 372q92 76 212 76h28q112 0 168 -44v-32q-14 -160 -52 -160h-8q-55 20 -104 24q-144 -15 -144 -216v-24h4l16 -4h140q64 0 64 -56v-88q0 -64 -64 -64h-140l-20 -20v-708q0 -72 -52 -72l-48 -4h-48q-92 0 -92 32l-4 24v696 q0 52 -36 52q-92 0 -92 32z" />
<glyph unicode="g" horiz-adv-x="1126" d="M90 454v36q0 311 268 468q92 44 180 44h20q104 0 248 -88q7 64 48 64l36 4h84q64 0 64 -28l-8 -384v-396q0 -184 -74 -334q-78 -180 -206 -226q-138 -44 -228 -44q-297 33 -348 96v16q0 47 52 164l28 8q141 -76 268 -76q167 0 260 280v4h-4q-157 -88 -256 -88 q-236 0 -372 236q-60 114 -60 244zM308 478q0 -209 148 -280q47 -16 96 -16q124 0 188 140q16 30 16 164v32q0 143 -36 164q-85 80 -168 104q-161 -51 -202.5 -135.5t-41.5 -172.5z" />
<glyph unicode="h" horiz-adv-x="1104" d="M130 56v1328q0 60 56 60h128q60 0 60 -56l4 -40v-404h16q115 88 244 88q340 -68 356 -424l8 -68v-456q0 -84 -56 -84h-132q-60 0 -60 56v468q0 150 -112 264q-32 24 -72 24q-140 0 -192 -176v-540q0 -92 -40 -92l-28 -4h-120q-60 0 -60 56z" />
<glyph unicode="i" horiz-adv-x="514" d="M100 1248v12q0 86 96 124l32 4h12q91 0 128 -108v-40q-31 -120 -120 -120h-28q-77 0 -116 100zM116 68v880q0 60 56 60h128q64 0 64 -64v-860q0 -84 -48 -84h-152q-48 0 -48 68z" />
<glyph unicode="j" horiz-adv-x="510" d="M-80 -226q0 23 112 36q96 33 96 88q40 131 40 448v600q0 56 44 56l52 4h48q96 0 96 -36l4 -32v-808q0 -180 -96 -396q-48 -73 -204 -120q-85 -24 -136 -24h-4q-44 0 -52 148v36zM156 1248v4q0 93 104 132h36q100 0 128 -116v-36q0 -73 -100 -112l-28 -4h-8 q-132 19 -132 132z" />
<glyph unicode="k" horiz-adv-x="1026" d="M160 56v1328q0 60 56 60h128q60 0 60 -56v-720l8 -8q252 304 296 344l24 4h176q64 0 64 -36q0 -25 -332 -364l-8 -28q0 -20 184 -252l200 -280l4 -16q0 -32 -64 -32h-192q-50 45 -208 276l-100 132h-16q-36 -25 -36 -68v-276q0 -64 -56 -64h-128q-60 0 -60 56z" />
<glyph unicode="l" horiz-adv-x="522" d="M150 56v1328q0 60 56 60h128q60 0 60 -56l4 -40v-1252q0 -96 -52 -96h-136q-60 0 -60 56z" />
<glyph unicode="m" horiz-adv-x="1598" d="M100 980q0 28 44 32h96q84 0 84 -44q5 -36 16 -36h4q169 48 280 48h20q161 -1 216 -96h4q131 148 292 148h24q237 0 324 -296l12 -128v-544q0 -64 -36 -64h-132q-72 0 -72 48l-4 36v480q0 171 -100 240q-37 12 -64 12q-127 0 -172 -176v-552q0 -84 -44 -84l-36 -4h-92 q-72 0 -72 48v492q0 276 -156 276q-123 0 -176 -160q-8 -16 -8 -44v-524q0 -84 -44 -84l-36 -4h-92q-72 0 -72 48v664z" />
<glyph unicode="n" horiz-adv-x="1108" d="M120 980q10 32 36 32h120q72 0 72 -52q0 -26 12 -28h4q200 84 312 84h20q201 0 288 -276q16 -75 16 -168v-484q0 -88 -40 -88h-120q-84 0 -84 36l-4 36v464q0 204 -124 272l-48 8q-153 0 -204 -184v-540q0 -88 -40 -88l-44 -4h-76q-84 0 -84 36l-4 32v636z" />
<glyph unicode="o" horiz-adv-x="1100" d="M10 508v28q0 295 252 456q115 60 228 60h36q196 0 344 -152q132 -156 132 -372q0 -361 -340 -504q-94 -24 -152 -24h-20q-307 0 -440 296q-40 95 -40 212zM258 524q0 -215 160 -300q53 -20 88 -20q156 0 224 200q16 58 16 104v32q0 200 -156 292q-49 16 -88 16 q-191 0 -240 -260z" />
<glyph unicode="p" horiz-adv-x="1081" d="M60 984q0 28 56 28h100q72 0 72 -48q3 -36 12 -36h12q168 104 268 104h24q245 0 372 -260q52 -112 52 -252q0 -413 -356 -528q-55 -12 -112 -12q-75 0 -240 76l-8 -24v-340q0 -72 -52 -72h-128q-64 0 -64 56v780zM312 440q0 -111 80 -168q69 -80 144 -80h8q149 0 212 168 q24 66 24 156q0 221 -172 296l-72 8q-128 0 -200 -144q-24 -48 -24 -136v-100z" />
<glyph unicode="q" horiz-adv-x="1024" d="M0 452v36q0 350 296 492q71 32 152 32h24q79 0 236 -84h8q0 64 76 64h100q60 0 60 -28h4q-8 -195 -8 -532v-768q0 -64 -56 -64h-124q-64 0 -64 56v360q0 30 -16 32q-154 -88 -260 -88q-264 0 -392 296q-36 98 -36 196zM248 476q0 -225 164 -292q44 -12 76 -12 q148 0 208 176q8 52 8 148q0 181 -44 196q-90 84 -160 100h-8q-60 0 -173 -84q-71 -138 -71 -232z" />
<glyph unicode="r" horiz-adv-x="692" d="M100 984q0 28 56 28h96q72 0 72 -48q0 -32 16 -32q134 100 216 100h20q68 0 68 -52v-148q-4 -44 -32 -44l-68 8q-123 0 -180 -160q-12 -64 -12 -136v-428q0 -72 -64 -72h-92q-84 0 -84 36l-4 32v412z" />
<glyph unicode="s" horiz-adv-x="702" d="M10 80v12q0 68 56 172l4 4h20q141 -68 208 -68h12q118 0 140 80l4 24q0 91 -196 148q-224 107 -224 272v20q0 208 236 288q48 16 108 16h24q157 0 256 -76v-16q0 -54 -56 -164h-36q-83 52 -176 52q-116 0 -116 -84v-12q0 -68 208 -136q212 -99 212 -288v-16 q-52 -304 -364 -304l-36 -4q-238 28 -284 80z" />
<glyph unicode="t" horiz-adv-x="731" d="M60 880v88q0 60 56 60q88 0 88 28v96q0 52 108 72q50 20 96 28h4q36 0 36 -68v-124q0 -32 40 -32h152q48 0 48 -52v-104q0 -48 -64 -48h-136q-40 0 -40 -32v-404q26 -172 96 -172l96 12q36 0 36 -108l4 -40q0 -64 -56 -64l-136 -16q-85 0 -204 76q-80 117 -80 308v404 q0 36 -44 36h-52q-48 0 -48 56z" />
<glyph unicode="u" horiz-adv-x="1059" d="M80 432v520q0 60 56 60h128q64 0 64 -64v-480q15 -210 120 -244l40 -4h4q142 0 196 152q8 17 8 64v512q0 64 56 64h128q64 0 64 -56v-744l8 -144q-4 -44 -36 -44h-144q-48 0 -48 52l-4 20l-4 4h-4q-11 0 -72 -40q-109 -60 -204 -60q-244 0 -332 272q-24 81 -24 160z" />
<glyph unicode="v" horiz-adv-x="993" d="M10 976v12q12 20 52 20h160q44 0 64 -84l204 -576h4l228 644q18 16 56 16h148q44 -3 44 -32q-20 -69 -188 -496q-172 -439 -188 -464q-11 -16 -28 -16h-164q-38 0 -76 132q-316 817 -316 844z" />
<glyph unicode="w" horiz-adv-x="1415" d="M-10 988q12 20 52 20h140q60 0 60 -48l156 -588h8q0 35 200 624q20 12 52 12h112q36 0 52 -48l180 -584h4q160 579 180 620q20 12 52 12h140q44 -5 44 -28q-12 -64 -300 -944q-16 -36 -40 -36h-148q-45 0 -64 88l-168 528h-4q-168 -522 -208 -604q-14 -12 -48 -12h-132 q-45 0 -88 196q-232 740 -232 792z" />
<glyph unicode="x" horiz-adv-x="1010" d="M30 32q0 24 228 344q82 114 88 136q0 18 -168 256q-132 183 -132 208q0 32 60 32h168q36 0 152 -200l76 -104h4l192 288q15 16 52 16h140q64 0 64 -36q-7 -34 -292 -424l-8 -28v-4q0 -20 208 -316q93 -136 104 -168q0 -29 -52 -32h-184q-34 0 -120 156l-112 164h-8 l-208 -312l-32 -8h-164q-56 0 -56 32z" />
<glyph unicode="y" horiz-adv-x="868" d="M-30 964v12q12 20 52 20h164q46 0 68 -92l200 -532l4 -4h8l208 612q18 16 56 16h140q43 0 56 -24q0 -38 -316 -832q-123 -268 -244 -432q-152 -138 -264 -148q-46 0 -76 188v12q0 16 68 36q171 90 232 264q-345 853 -356 904z" />
<glyph unicode="z" horiz-adv-x="1017" d="M80 56v80q0 22 164 228l324 420v4l-24 8h-376q-52 0 -52 84v32q0 92 40 92l28 4h688q22 0 32 -20v-124q0 -25 -360 -480l-120 -160v-4l8 -8h396q80 0 80 -36q8 -18 8 -52v-28q0 -96 -52 -96h-736q-48 0 -48 56z" />
<glyph unicode="{" d="M300 648v40q0 72 40 72q116 0 116 96v4l-32 332q0 168 316 284h32q48 0 48 -64v-72q0 -48 -76 -48q-72 -20 -96 -68q-12 -26 -12 -56v-12l28 -280q0 -91 -76 -192l-4 -16q0 -10 48 -84q24 -54 32 -120l-28 -288v-4q0 -113 156 -132q23 0 28 -48v-76q0 -56 -60 -56 q-109 12 -264 144q-72 74 -72 160l32 324q0 96 -136 96q-20 21 -20 64z" />
<glyph unicode="|" d="M427 -418v1995h160v-1995h-160z" />
<glyph unicode="}" d="M250 -46q0 60 56 60q128 31 128 116v24l-28 276q0 80 80 204v4l-56 100q-24 65 -24 112l28 264v36q0 101 -168 120q-16 26 -16 60v56q0 60 52 60h8q117 -12 272 -144q64 -72 64 -136v-12l-28 -300v-4l-4 -16q0 -104 112 -104q48 0 48 -84v-8q0 -84 -36 -84 q-124 0 -124 -104l32 -304v-24q0 -168 -308 -288l-32 -4q-56 0 -56 68v56z" />
<glyph unicode="~" d="M94 556v156q64 73 123 99t114 26q64 0 181.5 -49.5t172.5 -49.5q52 0 108.5 28t129.5 112v-156q-63 -72 -122 -97.5t-116 -25.5q-60 0 -177.5 48.5t-176.5 48.5q-51 0 -107.5 -28t-129.5 -112z" />
<glyph unicode="&#xa1;" horiz-adv-x="672" d="M871 767v36q0 86 96 124l32 4h12q86 0 124 -96l4 -32v-20q0 -77 -100 -116l-32 -4h-4q-93 0 -132 104zM879 -385q22 952 32 952q7 24 52 24h92q56 0 56 -44q7 0 28 -940q-17 -16 -32 -16h-192q-22 0 -36 24z" />
<glyph unicode="&#xaa;" horiz-adv-x="1048" d="M100 300v32q0 167 180 276q157 84 380 84v4q-23 152 -152 152h-40q-95 0 -220 -68h-4q-40 0 -68 120v4q0 52 96 104q105 44 228 44h36q267 0 352 -268q16 -67 16 -132v-272q0 -203 16 -320q0 -40 -44 -40h-100q-80 0 -80 32q-6 0 -12 32h-8q-111 -53 -180 -76l-76 -8 q-243 0 -316 244zM304 332q16 -128 104 -128h32q73 0 148 72q36 55 36 100v120h-12q-221 0 -292 -108q-12 -20 -16 -56z" />
<glyph unicode="&#xad;" horiz-adv-x="670" d="M88 492v12q0 45 68 56h340q68 -11 68 -56v-16q0 -50 -92 -56h-296q-88 7 -88 60z" />
<glyph unicode="&#xb2;" d="M100 68v76q0 29 180 192q420 454 420 592q0 143 -116 192q-40 12 -96 16q-114 0 -256 -108h-12q-42 0 -88 168v8q166 148 376 148h28q297 0 396 -284l12 -92v-44q0 -218 -460 -704l8 -8h412q72 0 72 -48v-100q0 -72 -64 -72h-724q-84 0 -84 36z" />
<glyph unicode="&#xb3;" d="M70 112v12q29 152 92 152h16l164 -52l80 -8h36q161 0 212 152l8 48q0 148 -176 200q-51 16 -156 16h-40q-48 0 -48 68v64q0 72 52 72q320 0 320 168v16q0 119 -152 136l-28 4q-94 0 -248 -84h-8q-36 0 -68 140q9 51 116 112q118 44 228 44h28q292 0 376 -260l8 -80 q0 -168 -168 -288q216 -113 216 -332q0 -276 -308 -388q-104 -24 -188 -24q-192 0 -348 88z" />
<glyph unicode="&#xb4;" horiz-adv-x="1024" d="M410 1030v17q51 139 99 394q0 19 193 31q17 -13 17 -27v-10q0 -40 -112 -316q-46 -99 -65 -99l-105 -10q-18 0 -27 20z" />
<glyph unicode="&#xb7;" horiz-adv-x="508" d="M148 608v14q14 68 68 68h14q57 0 68 -79q0 -60 -79 -71q-71 14 -71 68z" />
<glyph unicode="&#x2219;" horiz-adv-x="508" d="M148 608v14q14 68 68 68h14q57 0 68 -79q0 -60 -79 -71q-71 14 -71 68z" />
<glyph unicode="&#xb9;" d="M300 1140v16q31 38 252 148q40 24 52 24h128q60 0 60 -56v-1204q0 -68 -52 -68h-128q-60 0 -60 56v976q0 13 -12 28q-161 -84 -172 -84h-4q-38 0 -56 124q-7 0 -8 40z" />
<glyph unicode="&#xba;" horiz-adv-x="1100" d="M10 508v28q0 295 252 456q115 60 228 60h36q196 0 344 -152q132 -156 132 -372q0 -361 -340 -504q-94 -24 -152 -24h-20q-307 0 -440 296q-40 95 -40 212zM258 524q0 -215 160 -300q53 -20 88 -20q156 0 224 200q16 58 16 104v32q0 200 -156 292q-49 16 -88 16 q-191 0 -240 -260z" />
<glyph unicode="&#xbf;" horiz-adv-x="748" d="M930 -61q0 154 204 372q72 108 72 224v16q10 48 72 48q80 -7 80 -28q0 -239 -156 -404q-96 -123 -96 -204v-28q0 -111 128 -148l56 -4q88 0 192 56h4l20 -68v-20q0 -74 -196 -104l-48 -4h-28q-225 0 -296 204l-8 60v32zM1190 835v16q0 67 88 80q76 0 88 -92 q-16 -84 -80 -84h-16q-80 16 -80 80z" />
<glyph unicode="&#xc0;" horiz-adv-x="1402" d="M100 24q0 36 168 524q264 779 284 816q20 12 52 12h168q53 0 80 -128q380 -1094 412 -1216v-8q-9 -24 -76 -24h-112q-64 0 -64 32q-16 21 -128 360q-17 16 -40 16h-340q-42 0 -64 -112q-90 -275 -108 -284q0 -12 -56 -12h-100q-76 0 -76 24zM262 1826q0 31 20.5 51 t53.5 20q20 0 40.5 -12t55.5 -47l291 -296h-69l-330 202q-31 20 -46.5 40t-15.5 42zM544 632q5 -16 36 -16h196q30 0 32 12v8l-128 392h-4q-7 0 -52 -156q-40 -99 -80 -240z" />
<glyph unicode="&#xc1;" horiz-adv-x="1402" d="M100 24q0 36 168 524q264 779 284 816q20 12 52 12h168q53 0 80 -128q380 -1094 412 -1216v-8q-9 -24 -76 -24h-112q-64 0 -64 32q-16 21 -128 360q-17 16 -40 16h-340q-42 0 -64 -112q-90 -275 -108 -284q0 -12 -56 -12h-100q-76 0 -76 24zM544 632q5 -16 36 -16h196 q30 0 32 12v8l-128 392h-4q-7 0 -52 -156q-40 -99 -80 -240zM622 1562v17q51 139 99 394q0 19 193 31q17 -13 17 -27v-10q0 -40 -112 -316q-46 -99 -65 -99l-105 -10q-18 0 -27 20z" />
<glyph unicode="&#xc2;" horiz-adv-x="1402" d="M100 24q0 36 168 524q264 779 284 816q20 12 52 12h168q53 0 80 -128q380 -1094 412 -1216v-8q-9 -24 -76 -24h-112q-64 0 -64 32q-16 21 -128 360q-17 16 -40 16h-340q-42 0 -64 -112q-90 -275 -108 -284q0 -12 -56 -12h-100q-76 0 -76 24zM544 632q5 -16 36 -16h196 q30 0 32 12v8l-128 392h-4q-7 0 -52 -156q-40 -99 -80 -240z" />
<glyph unicode="&#xc3;" horiz-adv-x="1402" d="M100 24q0 36 168 524q264 779 284 816q20 12 52 12h168q53 0 80 -128q380 -1094 412 -1216v-8q-9 -24 -76 -24h-112q-64 0 -64 32q-16 21 -128 360q-17 16 -40 16h-340q-42 0 -64 -112q-90 -275 -108 -284q0 -12 -56 -12h-100q-76 0 -76 24zM274 1542v156q64 73 123 99 t114 26q64 0 181.5 -49.5t172.5 -49.5q52 0 108.5 28t129.5 112v-156q-63 -72 -122 -97.5t-116 -25.5q-60 0 -177.5 48.5t-176.5 48.5q-51 0 -107.5 -28t-129.5 -112zM544 632q5 -16 36 -16h196q30 0 32 12v8l-128 392h-4q-7 0 -52 -156q-40 -99 -80 -240z" />
<glyph unicode="&#xc8;" horiz-adv-x="1151" d="M130 1826q0 31 20.5 51t53.5 20q20 0 40.5 -12t55.5 -47l291 -296h-69l-330 202q-31 20 -46.5 40t-15.5 42zM170 48v1268q0 60 56 60h660q60 0 60 -56l4 -40v-24q0 -92 -32 -92l-36 -4h-424q-44 0 -44 -36v-264q0 -36 44 -36h412q48 0 48 -64v-100q0 -52 -84 -52h-400 q-20 -10 -20 -32v-324q0 -22 20 -32h456q84 0 84 -44l4 -40v-60q0 -76 -64 -76h-672q-72 0 -72 48z" />
<glyph unicode="&#xc9;" horiz-adv-x="1151" d="M170 48v1268q0 60 56 60h660q60 0 60 -56l4 -40v-24q0 -92 -32 -92l-36 -4h-424q-44 0 -44 -36v-264q0 -36 44 -36h412q48 0 48 -64v-100q0 -52 -84 -52h-400q-20 -10 -20 -32v-324q0 -22 20 -32h456q84 0 84 -44l4 -40v-60q0 -76 -64 -76h-672q-72 0 -72 48zM490 1562 v17q51 139 99 394q0 19 193 31q17 -13 17 -27v-10q0 -40 -112 -316q-46 -99 -65 -99l-105 -10q-18 0 -27 20z" />
<glyph unicode="&#xca;" horiz-adv-x="1151" d="M170 48v1268q0 60 56 60h660q60 0 60 -56l4 -40v-24q0 -92 -32 -92l-36 -4h-424q-44 0 -44 -36v-264q0 -36 44 -36h412q48 0 48 -64v-100q0 -52 -84 -52h-400q-20 -10 -20 -32v-324q0 -22 20 -32h456q84 0 84 -44l4 -40v-60q0 -76 -64 -76h-672q-72 0 -72 48z" />
<glyph unicode="&#xcc;" horiz-adv-x="657" d="M-76 1826q0 31 20.5 51t53.5 20q20 0 40.5 -12t55.5 -47l291 -296h-69l-330 202q-31 20 -46.5 40t-15.5 42zM230 48v1268q0 60 56 60h128q60 0 60 -56v-1252q0 -68 -56 -68h-116q-72 0 -72 48z" />
<glyph unicode="&#xcd;" horiz-adv-x="657" d="M230 48v1268q0 60 56 60h128q60 0 60 -56v-1252q0 -68 -56 -68h-116q-72 0 -72 48zM284 1562v17q51 139 99 394q0 19 193 31q17 -13 17 -27v-10q0 -40 -112 -316q-46 -99 -65 -99l-105 -10q-18 0 -27 20z" />
<glyph unicode="&#xce;" horiz-adv-x="657" d="M230 48v1268q0 60 56 60h128q60 0 60 -56v-1252q0 -68 -56 -68h-116q-72 0 -72 48z" />
<glyph unicode="&#xd1;" horiz-adv-x="1554" d="M260 48v1268q0 60 56 60h176q44 -41 180 -268q264 -408 404 -652h4l4 4l-4 24l-4 484v336q0 72 48 72h136q52 0 52 -72v-1232q0 -72 -52 -72h-136q-52 0 -72 48q-388 612 -556 904h-4l-4 -12l4 -16l4 -636v-200q0 -84 -44 -84l-36 -4h-84q-72 0 -72 48zM374 1542v156 q64 73 123 99t114 26q64 0 181.5 -49.5t172.5 -49.5q52 0 108.5 28t129.5 112v-156q-63 -72 -122 -97.5t-116 -25.5q-60 0 -177.5 48.5t-176.5 48.5q-51 0 -107.5 -28t-129.5 -112z" />
<glyph unicode="&#xd2;" horiz-adv-x="1614" d="M170 676v40q0 422 348 636q141 68 276 68h36q327 0 512 -300q96 -174 96 -396q0 -453 -348 -652q-144 -72 -296 -72q-258 0 -448 196q-176 207 -176 480zM386 1826q0 31 20.5 51t53.5 20q20 0 40.5 -12t55.5 -47l291 -296h-69l-330 202q-31 20 -46.5 40t-15.5 42z M430 684q0 -271 204 -424q83 -44 176 -44q239 0 344 296q28 128 28 200q0 290 -192 440q-92 56 -184 56q-248 0 -352 -308q-24 -104 -24 -160v-56z" />
<glyph unicode="&#xd3;" horiz-adv-x="1614" d="M170 676v40q0 422 348 636q141 68 276 68h36q327 0 512 -300q96 -174 96 -396q0 -453 -348 -652q-144 -72 -296 -72q-258 0 -448 196q-176 207 -176 480zM430 684q0 -271 204 -424q83 -44 176 -44q239 0 344 296q28 128 28 200q0 290 -192 440q-92 56 -184 56 q-248 0 -352 -308q-24 -104 -24 -160v-56zM746 1562v17q51 139 99 394q0 19 193 31q17 -13 17 -27v-10q0 -40 -112 -316q-46 -99 -65 -99l-105 -10q-18 0 -27 20z" />
<glyph unicode="&#xd4;" horiz-adv-x="1614" d="M170 676v40q0 422 348 636q141 68 276 68h36q327 0 512 -300q96 -174 96 -396q0 -453 -348 -652q-144 -72 -296 -72q-258 0 -448 196q-176 207 -176 480zM430 684q0 -271 204 -424q83 -44 176 -44q239 0 344 296q28 128 28 200q0 290 -192 440q-92 56 -184 56 q-248 0 -352 -308q-24 -104 -24 -160v-56z" />
<glyph unicode="&#xd5;" horiz-adv-x="1614" d="M170 676v40q0 422 348 636q141 68 276 68h36q327 0 512 -300q96 -174 96 -396q0 -453 -348 -652q-144 -72 -296 -72q-258 0 -448 196q-176 207 -176 480zM398 1542v156q64 73 123 99t114 26q64 0 181.5 -49.5t172.5 -49.5q52 0 108.5 28t129.5 112v-156 q-63 -72 -122 -97.5t-116 -25.5q-60 0 -177.5 48.5t-176.5 48.5q-51 0 -107.5 -28t-129.5 -112zM430 684q0 -271 204 -424q83 -44 176 -44q239 0 344 296q28 128 28 200q0 290 -192 440q-92 56 -184 56q-248 0 -352 -308q-24 -104 -24 -160v-56z" />
<glyph unicode="&#xd9;" horiz-adv-x="1501" d="M180 596v740q0 60 56 60h128q60 0 60 -56l4 -40v-712q0 -248 136 -344q80 -32 128 -32q276 0 276 408v716q0 60 56 60h128q64 0 64 -64v-660q0 -343 -248 -580q-129 -92 -268 -92h-24q-344 0 -468 412q-28 104 -28 184zM268 1826q0 31 20.5 51t53.5 20q20 0 40.5 -12 t55.5 -47l291 -296h-69l-330 202q-31 20 -46.5 40t-15.5 42z" />
<glyph unicode="&#xda;" horiz-adv-x="1501" d="M180 596v740q0 60 56 60h128q60 0 60 -56l4 -40v-712q0 -248 136 -344q80 -32 128 -32q276 0 276 408v716q0 60 56 60h128q64 0 64 -64v-660q0 -343 -248 -580q-129 -92 -268 -92h-24q-344 0 -468 412q-28 104 -28 184zM628 1562v17q51 139 99 394q0 19 193 31 q17 -13 17 -27v-10q0 -40 -112 -316q-46 -99 -65 -99l-105 -10q-18 0 -27 20z" />
<glyph unicode="&#xdb;" horiz-adv-x="1501" d="M180 596v740q0 60 56 60h128q60 0 60 -56l4 -40v-712q0 -248 136 -344q80 -32 128 -32q276 0 276 408v716q0 60 56 60h128q64 0 64 -64v-660q0 -343 -248 -580q-129 -92 -268 -92h-24q-344 0 -468 412q-28 104 -28 184z" />
<glyph unicode="&#xdd;" horiz-adv-x="1233" d="M60 1340v4q0 32 56 32h172q40 0 112 -172q16 -20 196 -384l4 -4h4q12 0 72 132q205 396 224 420q16 8 44 8h148q64 0 64 -36q-23 -53 -428 -744l-8 -36v-464q0 -92 -44 -92l-32 -4h-100q-72 0 -72 48v484q0 70 -96 216q-316 579 -316 592zM538 1562v17q51 139 99 394 q0 19 193 31q17 -13 17 -27v-10q0 -40 -112 -316q-46 -99 -65 -99l-105 -10q-18 0 -27 20z" />
<glyph unicode="&#xe0;" horiz-adv-x="1048" d="M92 1458q0 31 20.5 51t53.5 20q20 0 40.5 -12t55.5 -47l291 -296h-69l-330 202q-31 20 -46.5 40t-15.5 42zM100 300v32q0 167 180 276q157 84 380 84v4q-23 152 -152 152h-40q-95 0 -220 -68h-4q-40 0 -68 120v4q0 52 96 104q105 44 228 44h36q267 0 352 -268 q16 -67 16 -132v-272q0 -203 16 -320q0 -40 -44 -40h-100q-80 0 -80 32q-6 0 -12 32h-8q-111 -53 -180 -76l-76 -8q-243 0 -316 244zM304 332q16 -128 104 -128h32q73 0 148 72q36 55 36 100v120h-12q-221 0 -292 -108q-12 -20 -16 -56z" />
<glyph unicode="&#xe1;" horiz-adv-x="1048" d="M100 300v32q0 167 180 276q157 84 380 84v4q-23 152 -152 152h-40q-95 0 -220 -68h-4q-40 0 -68 120v4q0 52 96 104q105 44 228 44h36q267 0 352 -268q16 -67 16 -132v-272q0 -203 16 -320q0 -40 -44 -40h-100q-80 0 -80 32q-6 0 -12 32h-8q-111 -53 -180 -76l-76 -8 q-243 0 -316 244zM304 332q16 -128 104 -128h32q73 0 148 72q36 55 36 100v120h-12q-221 0 -292 -108q-12 -20 -16 -56zM452 1194v17q51 139 99 394q0 19 193 31q17 -13 17 -27v-10q0 -40 -112 -316q-46 -99 -65 -99l-105 -10q-18 0 -27 20z" />
<glyph unicode="&#xe2;" horiz-adv-x="1048" d="M100 300v32q0 167 180 276q157 84 380 84v4q-23 152 -152 152h-40q-95 0 -220 -68h-4q-40 0 -68 120v4q0 52 96 104q105 44 228 44h36q267 0 352 -268q16 -67 16 -132v-272q0 -203 16 -320q0 -40 -44 -40h-100q-80 0 -80 32q-6 0 -12 32h-8q-111 -53 -180 -76l-76 -8 q-243 0 -316 244zM304 332q16 -128 104 -128h32q73 0 148 72q36 55 36 100v120h-12q-221 0 -292 -108q-12 -20 -16 -56z" />
<glyph unicode="&#xe3;" horiz-adv-x="1048" d="M100 300v32q0 167 180 276q157 84 380 84v4q-23 152 -152 152h-40q-95 0 -220 -68h-4q-40 0 -68 120v4q0 52 96 104q105 44 228 44h36q267 0 352 -268q16 -67 16 -132v-272q0 -203 16 -320q0 -40 -44 -40h-100q-80 0 -80 32q-6 0 -12 32h-8q-111 -53 -180 -76l-76 -8 q-243 0 -316 244zM104 1174v156q64 73 123 99t114 26q64 0 181.5 -49.5t172.5 -49.5q52 0 108.5 28t129.5 112v-156q-63 -72 -122 -97.5t-116 -25.5q-60 0 -177.5 48.5t-176.5 48.5q-51 0 -107.5 -28t-129.5 -112zM304 332q16 -128 104 -128h32q73 0 148 72q36 55 36 100 v120h-12q-221 0 -292 -108q-12 -20 -16 -56z" />
<glyph unicode="&#xe8;" horiz-adv-x="1002" d="M50 500v24q0 311 252 472q103 52 216 52h24q287 0 388 -320q20 -71 20 -168q0 -104 -48 -104l-36 -4h-552l-8 -8v-8q-1 -12 -1 -24q0 -156 265 -204h20q112 0 240 48q44 0 60 -152v-32q-52 -43 -336 -72q-311 28 -404 197q-104 131 -104 256q0 24 4 47zM104 1458 q0 31 20.5 51t53.5 20q20 0 40.5 -12t55.5 -47l291 -296h-69l-330 202q-31 20 -46.5 40t-15.5 42zM306 672q8 -18 16 -20h352q28 0 28 24q-39 172 -172 172h-24q-113 0 -200 -176z" />
<glyph unicode="&#xe9;" horiz-adv-x="1002" d="M50 500v24q0 311 252 472q103 52 216 52h24q287 0 388 -320q20 -71 20 -168q0 -104 -48 -104l-36 -4h-552l-8 -8v-8q-1 -12 -1 -24q0 -156 265 -204h20q112 0 240 48q44 0 60 -152v-32q-52 -43 -336 -72q-311 28 -404 197q-104 131 -104 256q0 24 4 47zM306 672 q8 -18 16 -20h352q28 0 28 24q-39 172 -172 172h-24q-113 0 -200 -176zM464 1194v17q51 139 99 394q0 19 193 31q17 -13 17 -27v-10q0 -40 -112 -316q-46 -99 -65 -99l-105 -10q-18 0 -27 20z" />
<glyph unicode="&#xea;" horiz-adv-x="1002" d="M50 500v24q0 311 252 472q103 52 216 52h24q287 0 388 -320q20 -71 20 -168q0 -104 -48 -104l-36 -4h-552l-8 -8v-8q-1 -12 -1 -24q0 -156 265 -204h20q112 0 240 48q44 0 60 -152v-32q-52 -43 -336 -72q-311 28 -404 197q-104 131 -104 256q0 24 4 47zM306 672 q8 -18 16 -20h352q28 0 28 24q-39 172 -172 172h-24q-113 0 -200 -176z" />
<glyph unicode="&#xec;" horiz-adv-x="514" d="M-192 1794q0 31 20.5 51t53.5 20q20 0 40.5 -12t55.5 -47l291 -296h-69l-330 202q-31 20 -46.5 40t-15.5 42zM100 1248v12q0 86 96 124l32 4h12q91 0 128 -108v-40q-31 -120 -120 -120h-28q-77 0 -116 100zM116 68v880q0 60 56 60h128q64 0 64 -64v-860q0 -84 -48 -84 h-152q-48 0 -48 68z" />
<glyph unicode="&#xed;" horiz-adv-x="514" d="M100 1248v12q0 86 96 124l32 4h12q91 0 128 -108v-40q-31 -120 -120 -120h-28q-77 0 -116 100zM116 68v880q0 60 56 60h128q64 0 64 -64v-860q0 -84 -48 -84h-152q-48 0 -48 68zM168 1530v17q51 139 99 394q0 19 193 31q17 -13 17 -27v-10q0 -40 -112 -316 q-46 -99 -65 -99l-105 -10q-18 0 -27 20z" />
<glyph unicode="&#xee;" horiz-adv-x="514" d="M100 1248v12q0 86 96 124l32 4h12q91 0 128 -108v-40q-31 -120 -120 -120h-28q-77 0 -116 100zM116 68v880q0 60 56 60h128q64 0 64 -64v-860q0 -84 -48 -84h-152q-48 0 -48 68z" />
<glyph unicode="&#xf1;" horiz-adv-x="1108" d="M120 980q10 32 36 32h120q72 0 72 -52q0 -26 12 -28h4q200 84 312 84h20q201 0 288 -276q16 -75 16 -168v-484q0 -88 -40 -88h-120q-84 0 -84 36l-4 36v464q0 204 -124 272l-48 8q-153 0 -204 -184v-540q0 -88 -40 -88l-44 -4h-76q-84 0 -84 36l-4 32v636zM146 1174v156 q64 73 123 99t114 26q64 0 181.5 -49.5t172.5 -49.5q52 0 108.5 28t129.5 112v-156q-63 -72 -122 -97.5t-116 -25.5q-60 0 -177.5 48.5t-176.5 48.5q-51 0 -107.5 -28t-129.5 -112z" />
<glyph unicode="&#xf2;" horiz-adv-x="1100" d="M10 508v28q0 295 252 456q115 60 228 60h36q196 0 344 -152q132 -156 132 -372q0 -361 -340 -504q-94 -24 -152 -24h-20q-307 0 -440 296q-40 95 -40 212zM82 1458q0 31 20.5 51t53.5 20q20 0 40.5 -12t55.5 -47l291 -296h-69l-330 202q-31 20 -46.5 40t-15.5 42z M258 524q0 -215 160 -300q53 -20 88 -20q156 0 224 200q16 58 16 104v32q0 200 -156 292q-49 16 -88 16q-191 0 -240 -260z" />
<glyph unicode="&#xf3;" horiz-adv-x="1100" d="M10 508v28q0 295 252 456q115 60 228 60h36q196 0 344 -152q132 -156 132 -372q0 -361 -340 -504q-94 -24 -152 -24h-20q-307 0 -440 296q-40 95 -40 212zM258 524q0 -215 160 -300q53 -20 88 -20q156 0 224 200q16 58 16 104v32q0 200 -156 292q-49 16 -88 16 q-191 0 -240 -260zM442 1194v17q51 139 99 394q0 19 193 31q17 -13 17 -27v-10q0 -40 -112 -316q-46 -99 -65 -99l-105 -10q-18 0 -27 20z" />
<glyph unicode="&#xf4;" horiz-adv-x="1100" d="M10 508v28q0 295 252 456q115 60 228 60h36q196 0 344 -152q132 -156 132 -372q0 -361 -340 -504q-94 -24 -152 -24h-20q-307 0 -440 296q-40 95 -40 212zM258 524q0 -215 160 -300q53 -20 88 -20q156 0 224 200q16 58 16 104v32q0 200 -156 292q-49 16 -88 16 q-191 0 -240 -260z" />
<glyph unicode="&#xf5;" horiz-adv-x="1100" d="M10 508v28q0 295 252 456q115 60 228 60h36q196 0 344 -152q132 -156 132 -372q0 -361 -340 -504q-94 -24 -152 -24h-20q-307 0 -440 296q-40 95 -40 212zM94 1174v156q64 73 123 99t114 26q64 0 181.5 -49.5t172.5 -49.5q52 0 108.5 28t129.5 112v-156 q-63 -72 -122 -97.5t-116 -25.5q-60 0 -177.5 48.5t-176.5 48.5q-51 0 -107.5 -28t-129.5 -112zM258 524q0 -215 160 -300q53 -20 88 -20q156 0 224 200q16 58 16 104v32q0 200 -156 292q-49 16 -88 16q-191 0 -240 -260z" />
<glyph unicode="&#xf9;" horiz-adv-x="1059" d="M80 432v520q0 60 56 60h128q64 0 64 -64v-480q15 -210 120 -244l40 -4h4q142 0 196 152q8 17 8 64v512q0 64 56 64h128q64 0 64 -56v-744l8 -144q-4 -44 -36 -44h-144q-48 0 -48 52l-4 20l-4 4h-4q-11 0 -72 -40q-109 -60 -204 -60q-244 0 -332 272q-24 81 -24 160z M82 1458q0 31 20.5 51t53.5 20q20 0 40.5 -12t55.5 -47l291 -296h-69l-330 202q-31 20 -46.5 40t-15.5 42z" />
<glyph unicode="&#xfa;" horiz-adv-x="1059" d="M80 432v520q0 60 56 60h128q64 0 64 -64v-480q15 -210 120 -244l40 -4h4q142 0 196 152q8 17 8 64v512q0 64 56 64h128q64 0 64 -56v-744l8 -144q-4 -44 -36 -44h-144q-48 0 -48 52l-4 20l-4 4h-4q-11 0 -72 -40q-109 -60 -204 -60q-244 0 -332 272q-24 81 -24 160z M442 1194v17q51 139 99 394q0 19 193 31q17 -13 17 -27v-10q0 -40 -112 -316q-46 -99 -65 -99l-105 -10q-18 0 -27 20z" />
<glyph unicode="&#xfb;" horiz-adv-x="1059" d="M80 432v520q0 60 56 60h128q64 0 64 -64v-480q15 -210 120 -244l40 -4h4q142 0 196 152q8 17 8 64v512q0 64 56 64h128q64 0 64 -56v-744l8 -144q-4 -44 -36 -44h-144q-48 0 -48 52l-4 20l-4 4h-4q-11 0 -72 -40q-109 -60 -204 -60q-244 0 -332 272q-24 81 -24 160z" />
<glyph unicode="&#xfd;" horiz-adv-x="868" d="M-30 964v12q12 20 52 20h164q46 0 68 -92l200 -532l4 -4h8l208 612q18 16 56 16h140q43 0 56 -24q0 -38 -316 -832q-123 -268 -244 -432q-152 -138 -264 -148q-46 0 -76 188v12q0 16 68 36q171 90 232 264q-345 853 -356 904zM380 1194v17q51 139 99 394q0 19 193 31 q17 -13 17 -27v-10q0 -40 -112 -316q-46 -99 -65 -99l-105 -10q-18 0 -27 20z" />
<glyph unicode="&#x152;" horiz-adv-x="2765" d="M170 676v40q0 422 348 636q141 68 276 68h36q327 0 512 -300q96 -174 96 -396q0 -453 -348 -652q-144 -72 -296 -72q-258 0 -448 196q-176 207 -176 480zM430 684q0 -271 204 -424q83 -44 176 -44q239 0 344 296q28 128 28 200q0 290 -192 440q-92 56 -184 56 q-248 0 -352 -308q-24 -104 -24 -160v-56zM1784 48v1268q0 60 56 60h660q60 0 60 -56l4 -40v-24q0 -92 -32 -92l-36 -4h-424q-44 0 -44 -36v-264q0 -36 44 -36h412q48 0 48 -64v-100q0 -52 -84 -52h-400q-20 -10 -20 -32v-324q0 -22 20 -32h456q84 0 84 -44l4 -40v-60 q0 -76 -64 -76h-672q-72 0 -72 48z" />
<glyph unicode="&#x153;" horiz-adv-x="2102" d="M10 508v28q0 295 252 456q115 60 228 60h36q196 0 344 -152q132 -156 132 -372q0 -361 -340 -504q-94 -24 -152 -24h-20q-307 0 -440 296q-40 95 -40 212zM258 524q0 -215 160 -300q53 -20 88 -20q156 0 224 200q16 58 16 104v32q0 200 -156 292q-49 16 -88 16 q-191 0 -240 -260zM1150 500v24q0 311 252 472q103 52 216 52h24q287 0 388 -320q20 -71 20 -168q0 -104 -48 -104l-36 -4h-552l-8 -8v-8q-1 -12 -1 -24q0 -156 265 -204h20q112 0 240 48q44 0 60 -152v-32q-52 -43 -336 -72q-311 28 -404 197q-104 131 -104 256q0 24 4 47z M1406 672q8 -18 16 -20h352q28 0 28 24q-39 172 -172 172h-24q-113 0 -200 -176z" />
<glyph unicode="&#x2013;" horiz-adv-x="1024" d="M204 512v204h616v-204h-616z" />
<glyph unicode="&#x2014;" horiz-adv-x="2048" d="M204 512v204h1640v-204h-1640z" />
<glyph unicode="&#x2018;" horiz-adv-x="1024" d="M212 1363q0 31 20.5 51t53.5 20q20 0 40.5 -12t55.5 -47l291 -296h-69l-330 202q-31 20 -46.5 40t-15.5 42z" />
<glyph unicode="&#x2019;" horiz-adv-x="346" d="M101 1500q0 37 20.5 57t59.5 20t60.5 -19.5t21.5 -56.5q0 -8 -4 -34l-62 -359h-30l-62 359q-4 23 -4 33z" />
<glyph unicode="&#x201c;" horiz-adv-x="672" d="M101 1500q0 37 20.5 57t59.5 20t60.5 -19.5t21.5 -56.5q0 -8 -4 -34l-62 -359h-30l-62 359q-4 23 -4 33zM413 1500q0 37 20.5 57t59.5 20t60.5 -19.5t21.5 -56.5q0 -8 -4 -34l-62 -359h-30l-62 359q-4 23 -4 33z" />
<glyph unicode="&#x201d;" horiz-adv-x="672" d="M101 1500q0 37 20.5 57t59.5 20t60.5 -19.5t21.5 -56.5q0 -8 -4 -34l-62 -359h-30l-62 359q-4 23 -4 33zM413 1500q0 37 20.5 57t59.5 20t60.5 -19.5t21.5 -56.5q0 -8 -4 -34l-62 -359h-30l-62 359q-4 23 -4 33z" />
<glyph unicode="&#x2026;" horiz-adv-x="1671" d="M220 80v16q16 80 80 80h16q68 0 80 -92q0 -71 -92 -84q-84 16 -84 80zM777 80v16q16 80 80 80h16q68 0 80 -92q0 -71 -92 -84q-84 16 -84 80zM1334 80v16q16 80 80 80h16q68 0 80 -92q0 -71 -92 -84q-84 16 -84 80z" />
<glyph unicode="&#x2039;" d="M87 674v83l840 484v-167l-625 -359l625 -355v-167z" />
<glyph unicode="&#x203a;" d="M87 193v167l625 355l-625 359v167l840 -484v-83z" />
<glyph unicode="&#x2122;" horiz-adv-x="3148" d="M180 1204v112q0 60 56 60h920q60 0 60 -56l4 -40v-32q0 -88 -40 -88l-36 -4h-292q-32 0 -32 -40v-1060q0 -56 -64 -56h-108q-72 0 -72 48v1064q0 44 -32 44h-292q-72 0 -72 48zM1550 24q0 80 88 1316q0 36 68 36h176q50 0 72 -104q184 -495 288 -844h4q11 5 64 184 q256 709 276 748q18 16 56 16h168q60 0 60 -56q80 -1213 80 -1300q-16 -20 -64 -20h-104q-64 0 -64 28q-16 0 -56 900h-8q-300 -865 -328 -900q0 -20 -64 -20h-68q-54 0 -72 52l-280 848l-8 -8q-41 -888 -60 -888q-37 -12 -68 -12h-96q-60 0 -60 24z" />
<glyph unicode="&#xe000;" horiz-adv-x="1010" d="M0 1010h1010v-1010h-1010v1010z" />
<glyph unicode="&#xfb01;" horiz-adv-x="1313" d="M50 872v80q0 60 56 60h56q20 0 20 8q49 330 144 372q92 76 212 76h28q112 0 168 -44v-32q-14 -160 -52 -160h-8q-55 20 -104 24q-144 -15 -144 -216v-24h4l16 -4h140q64 0 64 -56v-88q0 -64 -64 -64h-140l-20 -20v-708q0 -72 -52 -72l-48 -4h-48q-92 0 -92 32l-4 24v696 q0 52 -36 52q-92 0 -92 32zM899 1248v12q0 86 96 124l32 4h12q91 0 128 -108v-40q-31 -120 -120 -120h-28q-77 0 -116 100zM915 68v880q0 60 56 60h128q64 0 64 -64v-860q0 -84 -48 -84h-152q-48 0 -48 68z" />
<glyph unicode="&#xfb02;" horiz-adv-x="1321" d="M50 872v80q0 60 56 60h56q20 0 20 8q49 330 144 372q92 76 212 76h28q112 0 168 -44v-32q-14 -160 -52 -160h-8q-55 20 -104 24q-144 -15 -144 -216v-24h4l16 -4h140q64 0 64 -56v-88q0 -64 -64 -64h-140l-20 -20v-708q0 -72 -52 -72l-48 -4h-48q-92 0 -92 32l-4 24v696 q0 52 -36 52q-92 0 -92 32zM949 56v1328q0 60 56 60h128q60 0 60 -56l4 -40v-1252q0 -96 -52 -96h-136q-60 0 -60 56z" />
<glyph unicode="&#xfb03;" horiz-adv-x="2112" d="M50 872v80q0 60 56 60h56q20 0 20 8q49 330 144 372q92 76 212 76h28q112 0 168 -44v-32q-14 -160 -52 -160h-8q-55 20 -104 24q-144 -15 -144 -216v-24h4l16 -4h140q64 0 64 -56v-88q0 -64 -64 -64h-140l-20 -20v-708q0 -72 -52 -72l-48 -4h-48q-92 0 -92 32l-4 24v696 q0 52 -36 52q-92 0 -92 32zM849 872v80q0 60 56 60h56q20 0 20 8q49 330 144 372q92 76 212 76h28q112 0 168 -44v-32q-14 -160 -52 -160h-8q-55 20 -104 24q-145 -15 -145 -216q0 -12 1 -24h4l16 -4h140q64 0 64 -56v-88q0 -64 -64 -64h-140l-20 -20v-708q0 -72 -52 -72 l-48 -4h-48q-92 0 -92 32l-4 24v696q0 52 -36 52q-92 0 -92 32zM1698 1248v12q0 86 96 124l32 4h12q91 0 128 -108v-40q-31 -120 -120 -120h-28q-77 0 -116 100zM1714 68v880q0 60 56 60h128q64 0 64 -64v-860q0 -84 -48 -84h-152q-48 0 -48 68z" />
<glyph unicode="&#xfb04;" horiz-adv-x="2120" d="M50 872v80q0 60 56 60h56q20 0 20 8q49 330 144 372q92 76 212 76h28q112 0 168 -44v-32q-14 -160 -52 -160h-8q-55 20 -104 24q-144 -15 -144 -216v-24h4l16 -4h140q64 0 64 -56v-88q0 -64 -64 -64h-140l-20 -20v-708q0 -72 -52 -72l-48 -4h-48q-92 0 -92 32l-4 24v696 q0 52 -36 52q-92 0 -92 32zM849 872v80q0 60 56 60h56q20 0 20 8q49 330 144 372q92 76 212 76h28q112 0 168 -44v-32q-14 -160 -52 -160h-8q-55 20 -104 24q-145 -15 -145 -216q0 -12 1 -24h4l16 -4h140q64 0 64 -56v-88q0 -64 -64 -64h-140l-20 -20v-708q0 -72 -52 -72 l-48 -4h-48q-92 0 -92 32l-4 24v696q0 52 -36 52q-92 0 -92 32zM1748 56v1328q0 60 56 60h128q60 0 60 -56l4 -40v-1252q0 -96 -52 -96h-136q-60 0 -60 56z" />
</font>
</defs>
</svg>
