<?xml version="1.0" standalone="no"?>
<!DOCTYPE svg PUBLIC "-//W3C//DTD SVG 1.1//EN" "http://www.w3.org/Graphics/SVG/1.1/DTD/svg11.dtd" >
<svg xmlns="http://www.w3.org/2000/svg">
<metadata>
This is a custom SVG webfont generated by Font Squirrel.
Copyright   : Typeface  your company 2008 All Rights Reserved
</metadata>
<defs>
<font id="extravaganzzaRegular" horiz-adv-x="1014" >
<font-face units-per-em="2048" ascent="1638" descent="-410" />
<missing-glyph horiz-adv-x="508" />
<glyph unicode=" "  horiz-adv-x="508" />
<glyph unicode="&#x09;" horiz-adv-x="508" />
<glyph unicode="&#xa0;" horiz-adv-x="508" />
<glyph unicode="!" horiz-adv-x="672" d="M207 136q0 15 16 31l82 84q15 14 29 14q13 0 31 -16l80 -86q12 -16 12 -29q0 -15 -14 -31l-80 -88q-20 -20 -29 -20q-16 0 -29 14l-88 101q-10 13 -10 26zM264 1364q0 46 21 69t62 23q42 0 62.5 -23t20.5 -69l-80 -1036h-37z" />
<glyph unicode="&#x22;" horiz-adv-x="672" d="M101 1500q0 37 20.5 57t59.5 20t60.5 -19.5t21.5 -56.5q0 -8 -4 -34l-62 -359h-30l-62 359q-4 23 -4 33zM413 1500q0 37 20.5 57t59.5 20t60.5 -19.5t21.5 -56.5q0 -8 -4 -34l-62 -359h-30l-62 359q-4 23 -4 33z" />
<glyph unicode="#" horiz-adv-x="1336" d="M117 472l30 98h271l86 290h-295l29 97h295l140 477h93l-141 -477h242l142 477h92l-141 -477h259l-29 -97h-259l-83 -290h279l-30 -98h-280l-140 -472h-92l139 472h-240l-142 -472h-92l140 472h-273zM511 569h242l86 290h-243z" />
<glyph unicode="$" d="M150 180q22 104 84 104l152 -48l76 -8h20q159 0 212 132l8 48v16q0 150 -280 244q-256 108 -256 316q0 230 276 304h16v128q11 68 56 68h12q35 0 52 -60v-36q10 -108 100 -108q152 -35 152 -56q-25 -96 -88 -96q-102 40 -204 40q-137 0 -188 -100q-16 -33 -16 -68 q0 -137 268 -228q272 -115 272 -344q0 -216 -236 -312l-72 -16v-136q-12 -64 -52 -64h-16q-56 0 -56 136q0 52 -100 76q-73 0 -192 68z" />
<glyph unicode="%" horiz-adv-x="1610" d="M100 892v24q0 289 236 376l76 8q241 0 284 -336v-56q0 -280 -220 -372l-64 -8h-32q-185 0 -264 236q-16 62 -16 128zM236 900q0 -205 116 -260l36 -8h24q107 0 144 212l4 72q0 203 -100 264q-40 16 -64 16q-135 0 -160 -260v-36zM384 4l712 1252q40 44 76 44h4 q28 0 28 -28t-140 -260l-552 -972q-42 -40 -72 -40h-48l-4 4h-4zM916 380q0 275 196 376q48 24 112 24q236 0 284 -300l4 -64v-32q0 -261 -196 -356q-44 -20 -104 -20q-214 0 -284 260zM1052 388q0 -195 104 -260q29 -16 64 -16h8q100 0 140 180l12 100q0 213 -108 272 l-60 12q-138 0 -160 -272v-16z" />
<glyph unicode="&#x26;" horiz-adv-x="1683" d="M330 332v32q0 217 252 364q-108 143 -108 284q0 205 216 296q44 16 104 16h20q198 0 272 -196l8 -80q0 -212 -280 -344l-4 -4v-4q230 -276 288 -324l12 -4q45 0 92 172q27 66 48 172h152v-4q0 -101 -100 -348q-35 -66 -84 -128l212 -228l-4 -4h-196l-120 120h-4 q-176 -140 -356 -140h-40q-246 0 -356 228q-24 69 -24 124zM490 368q0 -172 184 -248l88 -12q115 0 224 84q12 15 12 36v4q0 31 -76 104l-264 296q-168 -111 -168 -264zM630 1016q0 -113 100 -228q212 117 212 244v12q0 129 -124 160l-28 4q-64 0 -116 -56q-44 -58 -44 -136 z" />
<glyph unicode="'" horiz-adv-x="346" d="M101 1500q0 37 20.5 57t59.5 20t60.5 -19.5t21.5 -56.5q0 -8 -4 -34l-62 -359h-30l-62 359q-4 23 -4 33z" />
<glyph unicode="(" horiz-adv-x="758" d="M200 630v36q0 336 220 724q50 52 108 52h56v-4q-240 -327 -240 -784q0 -443 240 -780l-4 -4h-56q-110 0 -184 204q-140 303 -140 556z" />
<glyph unicode=")" horiz-adv-x="758" d="M220 -126q240 350 240 784q0 440 -240 776v8h52q109 0 176 -180q152 -312 152 -588v-40q0 -314 -212 -704q-51 -60 -112 -60h-56v4z" />
<glyph unicode="*" horiz-adv-x="1024" d="M133 1148v16q0 37 56 48l224 -24q-143 186 -148 208v20q0 41 60 52q56 0 108 -156q38 -83 44 -84q96 236 120 236l20 4h16q40 0 48 -56v-8q0 -23 -148 -212v-4h4l224 24q60 -9 60 -56t-64 -60l-224 24v-4q144 -179 144 -188l4 -20v-12q0 -39 -60 -52q-59 0 -104 148 l-40 92h-8q-77 -176 -108 -224q-21 -16 -36 -16h-12q-48 10 -48 48v20q0 21 152 212h-4l-228 -24q-52 10 -52 48z" />
<glyph unicode="+" d="M0 638v24q25 44 72 44h288q76 0 76 88v296q11 68 56 68h12q45 0 56 -68v-296q0 -88 76 -88h288q72 -11 72 -56v-8q0 -50 -88 -56h-276q-72 -10 -72 -76v-312q-10 -68 -64 -68h-4q-56 15 -56 68v300q0 75 -64 88h-280q-92 6 -92 52z" />
<glyph unicode="," horiz-adv-x="557" d="M98 -196q52 150 116 460q75 12 132 12q27 0 36 -40q0 -22 -136 -364q-50 -68 -132 -68h-16z" />
<glyph unicode="-" horiz-adv-x="670" d="M88 492v12q0 45 68 56h340q68 -11 68 -56v-16q0 -50 -92 -56h-296q-88 7 -88 60z" />
<glyph unicode="." horiz-adv-x="557" d="M220 80v16q16 80 80 80h16q68 0 80 -92q0 -71 -92 -84q-84 16 -84 80z" />
<glyph unicode="/" horiz-adv-x="569" d="M-30 16v20q479 1263 504 1304q43 40 68 40h16q33 0 40 -44q-16 -61 -500 -1304q-41 -52 -84 -52h-8q-36 5 -36 36z" />
<glyph unicode="0" d="M80 632v32q8 485 304 612q66 20 116 20h28q335 0 400 -504l4 -124v-8q-1 -497 -268 -628q-74 -32 -144 -32h-44q-262 0 -368 376q-28 126 -28 256zM252 620q0 -399 200 -480q18 -8 52 -8h4q186 0 240 320q12 104 12 200v12q0 377 -160 476q-45 24 -96 24 q-193 0 -244 -372q-8 -41 -8 -128v-44z" />
<glyph unicode="1" d="M300 1052v16q0 66 132 120q109 68 192 68h20q45 0 60 -68v-1124q-13 -64 -84 -64h-4q-76 13 -76 72v1016l-4 4v4q-164 -92 -184 -92q-52 8 -52 48z" />
<glyph unicode="2" d="M110 48v12q0 63 164 204q436 455 436 636q0 163 -148 220l-100 16q-122 0 -264 -104h-8l-24 64v28q0 76 200 132q51 20 120 20h20q296 0 368 -288l8 -80q0 -276 -404 -640l-128 -124h464q82 0 96 -56v-28q0 -46 -68 -60h-668q-52 0 -64 48z" />
<glyph unicode="3" d="M110 116v20q17 80 32 80q134 -80 276 -80q224 0 276 200l4 40q0 163 -176 228q-68 28 -200 28q-44 27 -44 56v12q0 64 96 64q124 0 244 108q32 49 32 92v20q0 115 -132 164l-60 8h-40q-106 0 -236 -80q-24 51 -24 72v16q0 95 268 132h52q276 0 340 -236q8 -22 8 -68 q0 -199 -228 -288v-8q276 -134 276 -328q0 -225 -240 -332q-93 -36 -180 -36h-68q-107 0 -240 56q-36 35 -36 60z" />
<glyph unicode="4" d="M50 396v4q0 73 108 212l424 604q54 40 100 40h48q49 0 64 -72v-632q0 -76 120 -76q56 -21 56 -68v-4q0 -64 -124 -64q-52 -27 -52 -72v-200q0 -53 -76 -68h-12q-67 0 -76 88v184q0 72 -100 72h-416q-53 0 -64 52zM226 480l40 -4h276q88 7 88 72v28l4 476l4 36l-144 -236 q-15 -11 -268 -372z" />
<glyph unicode="5" d="M120 76v4q19 104 88 104q121 -44 204 -44h32q195 0 272 192l12 76q0 237 -292 276l-68 4q-96 -4 -172 -16l-4 4q68 520 80 556q33 44 72 44h468q51 0 64 -72q0 -60 -76 -72h-328q-80 0 -92 -112l-20 -160q12 -40 28 -40h48q325 0 436 -236q28 -72 28 -144v-24 q0 -258 -276 -384q-89 -32 -180 -32h-24q-168 0 -300 76z" />
<glyph unicode="6" d="M70 524v32q0 416 332 640q182 100 388 100h12l8 -8v-124l-8 -8h-44q-221 0 -384 -172q-98 -138 -124 -276q123 140 288 140h24q258 0 356 -272q16 -81 16 -128q0 -284 -252 -416q-78 -32 -168 -32h-8q-256 0 -384 256q-52 120 -52 268zM238 484v-4q0 -220 168 -324 q68 -24 112 -24q158 0 228 196q16 67 16 108q0 192 -164 268q-55 16 -92 16q-175 0 -260 -180z" />
<glyph unicode="7" d="M110 1176v20q0 45 68 60h656q68 -12 68 -52v-4q0 -81 -136 -340q-348 -738 -396 -820q-47 -40 -96 -40h-20q-32 0 -48 28v24l516 1060l-128 4h-424q-50 10 -60 60z" />
<glyph unicode="8" d="M80 320v28q0 142 204 296l40 36q-196 103 -196 268v24q0 222 260 308q45 16 120 16h28q233 0 328 -204q16 -49 16 -84v-44q0 -167 -204 -268l152 -124q100 -114 100 -204v-12q0 -221 -240 -324q-78 -32 -160 -32h-60q-248 0 -368 220q-20 65 -20 100zM256 336 q0 -142 176 -204l72 -8h4q172 0 236 152l12 72q0 196 -276 272q-224 -77 -224 -248v-36zM288 972q0 -167 244 -228q184 75 184 216v28q0 127 -140 176q-18 8 -52 8h-32q-147 0 -196 -148z" />
<glyph unicode="9" d="M100 836v28q0 242 232 388q96 44 184 44h24q284 0 384 -336q20 -84 20 -176v-40q0 -479 -380 -680q-153 -64 -288 -64h-64l-8 8v124q0 8 12 8l40 -4q269 0 416 216q92 182 92 240q-127 -128 -292 -128q-247 0 -348 240q-24 59 -24 132zM268 860q0 -183 156 -248 q40 -16 80 -16h20q147 0 236 140q9 15 12 60q0 305 -208 364l-40 4h-24q-154 0 -224 -216l-8 -84v-4z" />
<glyph unicode=":" horiz-adv-x="557" d="M129 80v16q16 80 80 80h16q68 0 80 -92q0 -71 -92 -84q-84 16 -84 80zM129 751v16q16 80 80 80h16q68 0 80 -92q0 -71 -92 -84q-84 16 -84 80z" />
<glyph unicode=";" horiz-adv-x="557" d="M119 -196q52 150 116 460q75 12 132 12q27 0 36 -40q0 -22 -136 -364q-50 -68 -132 -68h-16zM241 751v16q16 80 80 80h16q68 0 80 -92q0 -71 -92 -84q-84 16 -84 80z" />
<glyph unicode="&#x37e;" horiz-adv-x="557" d="M119 -196q52 150 116 460q75 12 132 12q27 0 36 -40q0 -22 -136 -364q-50 -68 -132 -68h-16zM241 751v16q16 80 80 80h16q68 0 80 -92q0 -71 -92 -84q-84 16 -84 80z" />
<glyph unicode="&#x3c;" d="M87 674v83l840 484v-167l-625 -359l625 -355v-167z" />
<glyph unicode="=" d="M0 552v12q0 56 92 56h812q92 0 92 -56v-8q-10 -56 -80 -56h-832q-71 0 -84 52zM0 932v12q0 35 60 52h868q68 -12 68 -52v-12q0 -40 -68 -52h-860q-68 12 -68 52z" />
<glyph unicode="&#x3e;" d="M87 193v167l625 355l-625 359v167l840 -484v-83z" />
<glyph unicode="?" horiz-adv-x="748" d="M90 1160v20q0 74 196 104l48 4h28q225 0 296 -204l8 -60v-32q0 -154 -204 -372q-72 -108 -72 -224v-16q-10 -48 -72 -48q-80 7 -80 28q0 239 156 404q96 123 96 204v28q0 111 -128 148l-56 4q-88 0 -192 -56h-4zM230 92q16 84 80 84h16q80 -16 80 -80v-16q0 -67 -88 -80 q-76 0 -88 92z" />
<glyph unicode="@" horiz-adv-x="2019" d="M100 508q0 242 124 464.5t345.5 342t456.5 119.5q362 0 609 -230t247 -566q0 -270 -176 -439q-175 -168 -346 -170q-63 1 -100.5 18t-61.5 54q-29 -37 -82 -64.5t-133 -27.5q-144 0 -256.5 100.5t-112.5 233.5q1 87 53 166.5t132.5 115t173.5 49.5q67 16 110 42.5 t43 74.5q-2 69 -41 125t-129 56q-72 0 -121.5 -59t-50.5 -125h-45v159q0 20 72 40q73 20 178 20q109 -2 193.5 -64.5t84.5 -157.5v-589q0 -117 94 -117q185 35 267 191.5t82 382.5q-20 335 -232 540q-197 188 -480 188q-205 0 -392.5 -137.5t-269.5 -355.5 q-67 -178 -67 -361q0 -313 129.5 -511.5t305 -290.5t318.5 -92q274 0 575 208v-75q-263 -184 -571 -184q-240 0 -461 122.5t-343 342t-122 461.5zM753 343q0 -107 64 -194t183 -87q97 5 126 167v476q-54 -63 -154 -83q-83 -10 -151 -80t-68 -199z" />
<glyph unicode="A" horiz-adv-x="1402" d="M160 32v24q364 1094 408 1200q45 44 80 44h68q91 0 136 -200q328 -945 356 -1048v-8q-7 -44 -44 -44h-56q-84 29 -84 72l-108 296q-46 40 -84 40h-296q-112 0 -144 -180q-63 -196 -88 -208q-37 -20 -56 -20h-44q-27 0 -44 32zM514 588q0 -48 68 -48h224q56 6 56 44v8 q-172 526 -172 552h-4q-52 -197 -172 -556z" />
<glyph unicode="B" horiz-adv-x="1219" d="M200 80v1212q0 23 284 32h52q329 0 420 -216q16 -47 16 -96v-28q0 -175 -216 -268q12 -14 96 -56q168 -121 168 -260v-32q0 -247 -292 -340q-129 -28 -272 -28q-236 0 -236 40q-10 0 -20 40zM368 140l80 -4h80q229 0 296 156q16 36 16 76v32q0 157 -192 220 q-76 16 -144 16h-60q-76 0 -76 -88v-408zM368 844q12 -80 76 -80q193 0 332 144q24 39 24 76v8q0 134 -144 184q-57 16 -112 16h-100q-65 0 -76 -96v-252z" />
<glyph unicode="C" horiz-adv-x="1399" d="M200 644v40q0 380 332 580q157 80 324 80h40q266 -15 292 -64q-20 -112 -88 -112q-140 36 -212 36q-369 0 -484 -344q-24 -88 -24 -168v-44q0 -328 272 -460q105 -44 228 -44q77 0 220 36q71 0 88 -116q-134 -64 -344 -64h-4q-445 0 -600 400q-40 112 -40 244z" />
<glyph unicode="D" horiz-adv-x="1518" d="M240 80v1212q30 24 324 32h56q480 0 636 -344q52 -124 52 -284v-12q0 -457 -384 -620q-164 -64 -380 -64q-288 0 -288 44q-16 18 -16 36zM408 148l100 -8h104q347 0 480 304q40 129 40 248q0 342 -284 460q-114 36 -216 36h-96q-128 0 -128 -104v-936z" />
<glyph unicode="E" horiz-adv-x="1151" d="M210 64v1172q18 64 64 64h576q51 0 64 -72v-4q0 -50 -68 -64h-368q-100 0 -100 -80v-252q11 -80 80 -80h356q72 -11 72 -72q0 -54 -76 -68h-356q-76 0 -76 -88v-300q0 -80 92 -80h408q51 0 64 -68v-4q-11 -68 -68 -68h-596q-68 14 -68 64z" />
<glyph unicode="F" horiz-adv-x="1079" d="M210 64v1172q18 64 64 64h568q68 -14 68 -60v-16q-12 -64 -60 -64h-372q-100 0 -100 -92v-252q0 -88 76 -88h344q72 -13 72 -60v-20q0 -46 -68 -60h-332q-92 0 -92 -80v-444q0 -50 -68 -64h-32q-68 14 -68 64z" />
<glyph unicode="G" horiz-adv-x="1479" d="M200 644v28q0 396 368 592q159 64 320 64h36q286 -19 304 -68q-23 -108 -76 -108h-16q-143 36 -236 36q-333 0 -472 -276q-48 -113 -48 -228v-44q0 -331 292 -464q99 -36 216 -36q191 8 216 40v280q0 100 -76 100h-104q-88 7 -88 72q18 64 64 64h304q51 0 64 -72v-548 q0 -14 -144 -48q-130 -28 -240 -28h-36q-437 0 -596 368q-52 125 -52 276z" />
<glyph unicode="H" horiz-adv-x="1579" d="M360 64v1172q18 64 64 64h40q64 -18 64 -64v-400q11 -80 80 -80h460q88 0 88 76v396q0 54 64 72h44q64 -18 64 -72v-1156q-14 -72 -64 -72h-44q-50 0 -64 72v460q-12 76 -76 76h-476q-76 0 -76 -88v-456q0 -50 -68 -64h-32q-68 14 -68 64z" />
<glyph unicode="I" horiz-adv-x="657" d="M270 64v1172q18 64 64 64h40q64 -18 64 -64v-1172q0 -50 -68 -64h-32q-68 14 -68 64z" />
<glyph unicode="J" horiz-adv-x="657" d="M10 40l20 128h4q87 -24 144 -24q178 0 220 164q16 62 16 184v804l8 8h96q64 -18 64 -64v-724q0 -300 -164 -452q-76 -64 -228 -64q-83 0 -176 28z" />
<glyph unicode="K" horiz-adv-x="1382" d="M290 64v1172q18 64 64 64h40q64 -18 64 -64v-528l4 -28l128 164q305 377 352 424q52 31 84 32h80q22 0 32 -20v-8q0 -24 -220 -268l-176 -212l-12 -44v-16q0 -39 176 -280l272 -412v-8q0 -32 -32 -32h-76q-83 0 -184 184l-280 408l-24 8h-12q-44 0 -100 -116l-12 -76 v-344q0 -50 -68 -64h-32q-68 14 -68 64z" />
<glyph unicode="L" horiz-adv-x="1128" d="M250 64v1172q18 64 64 64h40q64 -18 64 -64v-1016q0 -80 92 -80h400q64 -18 64 -60v-20q-10 -50 -60 -60h-596q-68 14 -68 64z" />
<glyph unicode="M" horiz-adv-x="1798" d="M240 60q77 1200 88 1200q31 40 68 40h76q86 0 120 -148q217 -582 300 -916h4q136 459 356 1020q47 44 84 44h76q65 0 76 -84l72 -1156q-22 -60 -60 -60h-40q-72 0 -72 160q-44 743 -44 956v4h-4q-148 -469 -380 -1072q-37 -39 -76 -44q-85 0 -128 192q-177 483 -296 928 h-4q-24 -665 -60 -1076q-29 -48 -68 -48h-32q-40 0 -56 60z" />
<glyph unicode="N" horiz-adv-x="1554" d="M310 64v1172q18 64 64 64h56q87 0 176 -180q359 -539 536 -892h4q-20 312 -20 672v312q7 88 72 88h24q64 -18 64 -64v-1168q-15 -68 -60 -68h-48q-85 0 -188 204q-321 489 -532 884v-4q12 -374 12 -640v-368q0 -59 -64 -76h-28q-68 14 -68 64z" />
<glyph unicode="O" horiz-adv-x="1614" d="M210 644v36q0 407 328 600q124 64 260 64h28q351 0 512 -340q60 -139 60 -284v-76q0 -349 -272 -552q-151 -92 -324 -92h-12q-387 0 -544 404q-36 123 -36 240zM390 660q0 -307 216 -464q90 -56 184 -56h28q267 0 376 336q20 64 28 200q0 316 -224 480q-90 48 -172 48 h-40q-218 0 -336 -244q-60 -134 -60 -300z" />
<glyph unicode="P" horiz-adv-x="1120" d="M200 72v1208q0 24 292 32h48q341 0 440 -240q20 -64 20 -116v-52q0 -283 -328 -376q-75 -16 -136 -16h-92l-76 8v-448q0 -59 -76 -72h-16q-76 13 -76 72zM368 660q61 -12 116 -12h40q201 0 280 148q28 51 28 136q0 180 -196 236l-88 8h-96q-72 0 -84 -100v-416z" />
<glyph unicode="Q" horiz-adv-x="1614" d="M210 634v44q0 340 236 544q163 124 356 124h28q352 0 516 -360q52 -138 52 -264v-80q0 -287 -204 -484q-58 -55 -164 -96v-4l328 -76q32 -22 32 -64l-32 -88q-312 88 -556 168q-282 0 -464 232q-128 183 -128 404zM390 682v-36q0 -320 252 -472q68 -28 160 -36 q249 0 368 268q52 136 52 268q0 328 -228 488q-93 44 -168 44h-32q-262 0 -372 -320q-32 -101 -32 -204z" />
<glyph unicode="R" horiz-adv-x="1283" d="M220 72v1208q13 24 296 32h56q350 0 432 -236q16 -45 16 -96v-52q0 -162 -176 -272l-64 -28v-4q128 -104 168 -196q77 -316 120 -424l-4 -4h-88q-74 0 -108 72l-84 324q-58 168 -248 168h-72q-76 0 -76 -88v-404q0 -59 -76 -72h-16q-76 13 -76 72zM388 772q11 -80 80 -80 q244 0 372 184l12 64q0 171 -168 224q-57 16 -112 16h-100q-67 0 -84 -92v-316z" />
<glyph unicode="S" horiz-adv-x="1085" d="M190 128v16l20 80h12q138 -80 284 -80h28q177 0 240 148q12 32 12 68q0 183 -248 260q-340 125 -340 360v20q0 234 276 328q67 16 132 16h32q161 0 268 -64v-4q-25 -108 -76 -108h-16q-96 36 -200 36q-179 0 -236 -136l-8 -52v-12q0 -164 284 -252q304 -125 304 -352v-44 q0 -217 -240 -320q-88 -36 -204 -36h-12q-128 0 -280 64q-32 34 -32 64z" />
<glyph unicode="T" horiz-adv-x="1350" d="M220 1224v16q0 42 64 60h836q64 -18 64 -64v-8q-11 -72 -72 -72h-252q-72 -14 -72 -64v-1004q-11 -88 -64 -88h-40q-68 12 -68 68v996q0 92 -76 92h-248q-72 12 -72 68z" />
<glyph unicode="U" horiz-adv-x="1501" d="M220 564v712l8 8h156l8 -8v-676q0 -460 304 -460q241 0 300 268q12 58 12 136v732l8 8h92q72 -11 72 -72v-564q0 -373 -224 -580q-116 -68 -244 -68h-40q-329 0 -428 336q-24 101 -24 228z" />
<glyph unicode="V" horiz-adv-x="1402" d="M180 1244v12q8 44 44 44h48q90 0 124 -172q284 -880 284 -944h8q128 447 352 1068q43 48 84 48h40q52 -5 52 -52q-380 -1079 -432 -1204q-43 -44 -80 -44h-60q-92 33 -92 100q-348 1049 -372 1144z" />
<glyph unicode="W" horiz-adv-x="2030" d="M230 1244v8q10 48 48 48h44q90 0 108 -168q116 -461 212 -932h4q100 457 268 1052q39 48 80 48h40q87 0 108 -172q208 -837 208 -928h4q112 507 264 1052q41 48 80 48h40q40 0 48 -56l-336 -1188q-41 -56 -76 -56h-56q-82 0 -108 200q-200 791 -200 892h-4 q-80 -362 -220 -860q-46 -176 -68 -200q-34 -32 -64 -32h-44q-88 0 -116 196q-256 987 -264 1048z" />
<glyph unicode="X" horiz-adv-x="1350" d="M190 32v8q4 25 308 520q36 52 36 100q0 49 -132 256q-188 312 -196 340v12q0 32 36 32h64q86 0 168 -184q126 -214 184 -332l4 -4h4q215 399 288 492q48 28 84 28h52q36 0 36 -32v-8q0 -16 -316 -516q-24 -37 -24 -64v-28q0 -35 124 -228q228 -371 228 -388v-8 q-12 -28 -36 -28h-68q-87 0 -164 176l-216 364h-4q-242 -455 -280 -500q0 -18 -80 -40h-68q-32 0 -32 32z" />
<glyph unicode="Y" horiz-adv-x="1233" d="M120 1256v20q14 24 36 24h60q92 0 168 -200q208 -396 208 -420h4q6 1 148 292l156 288q48 40 84 40h60q22 0 36 -24v-12q0 -24 -112 -208q-263 -444 -276 -484q-20 -60 -20 -136v-368q-14 -68 -60 -68h-48q-57 0 -64 96v380q0 103 -124 304q-239 428 -256 476z" />
<glyph unicode="Z" horiz-adv-x="1124" d="M100 36v12q0 76 164 288l556 820l-140 4h-452q-59 0 -68 76q19 64 64 64h752q64 -9 64 -48v-4q0 -77 -172 -300l-544 -804l48 -4h608q72 -11 72 -72q-16 -68 -64 -68h-828q-36 0 -60 36z" />
<glyph unicode="[" horiz-adv-x="758" />
<glyph unicode="\" horiz-adv-x="569" d="M-219 1346q9 44 50 44h21q31 0 85 -40q32 -41 635 -1304v-20q0 -31 -45 -36h-10q-55 0 -106 52q-610 1243 -630 1304z" />
<glyph unicode="]" horiz-adv-x="758" />
<glyph unicode="^" />
<glyph unicode="_" horiz-adv-x="1024" d="M0 -140q26 36 64 36h836q55 0 64 -44v-8q-9 -44 -60 -44h-848q-29 0 -56 36v24z" />
<glyph unicode="`" horiz-adv-x="1024" d="M212 1363q0 31 20.5 51t53.5 20q20 0 40.5 -12t55.5 -47l291 -296h-69l-330 202q-31 20 -46.5 40t-15.5 42z" />
<glyph unicode="a" horiz-adv-x="922" d="M90 252v28q0 250 348 320q90 16 200 16h12q0 182 -108 216q-49 16 -84 16h-32q-115 0 -228 -68q-20 36 -20 60v20q0 85 260 116h40q242 0 332 -312q12 -114 12 -204v-260q0 -79 12 -176l-4 -4h-80q-84 0 -84 116q-149 -136 -268 -136h-40q-198 0 -264 208zM262 280 q0 -132 140 -152l16 -4q236 27 236 236v136h-40q-265 0 -336 -128q-16 -38 -16 -76v-12z" />
<glyph unicode="b" horiz-adv-x="995" d="M60 72l4 368v888q18 64 64 64h40q64 -18 64 -64v-508l8 -8q156 168 312 168q234 0 348 -232q48 -104 48 -224v-40q0 -347 -300 -468q-63 -16 -112 -16h-20q-201 0 -296 172h-4q-8 -148 -64 -148l-24 -4q-43 0 -68 52zM232 420q0 -209 196 -276l72 -8q215 0 272 276l4 72 v28q0 236 -200 320l-64 8h-20q-173 0 -248 -204q-12 -46 -12 -200v-16z" />
<glyph unicode="c" horiz-adv-x="905" d="M80 464v40q0 284 272 428q105 44 212 44h32q125 0 220 -48q-14 -108 -76 -108h-8q-71 20 -156 20q-218 0 -304 -220q-20 -78 -20 -136q0 -249 228 -332q50 -12 88 -12h20q74 0 156 24q68 -13 68 -108q-115 -56 -268 -56q-328 0 -440 308q-24 72 -24 156z" />
<glyph unicode="d" horiz-adv-x="1040" d="M70 456v44q0 310 264 448q56 24 152 32q192 0 280 -140h4l4 28v452q15 72 64 72h36q59 0 72 -76v-1092q0 -138 8 -200l-4 -4h-76q-84 0 -84 144v16q-161 -180 -308 -180h-24q-239 0 -356 272q-32 94 -32 184zM242 484q0 -253 188 -332q43 -12 72 -12h28q161 0 232 188 q12 40 12 92v148q0 187 -164 260q-43 13 -88 16q-228 0 -276 -304z" />
<glyph unicode="e" horiz-adv-x="909" d="M80 456v36q0 320 280 460q84 24 144 24h36q255 0 344 -288q20 -59 20 -140v-44q-9 -48 -80 -48h-580v-4q0 -215 180 -292q36 -20 136 -28q132 0 260 48q16 -38 16 -72q0 -80 -144 -96q-48 -12 -120 -12h-52q-286 0 -404 264q-36 90 -36 192zM264 628q0 -43 56 -48h420v4 q0 181 -140 252q-46 16 -80 16h-28q-144 0 -228 -216v-8z" />
<glyph unicode="f" horiz-adv-x="559" d="M0 860v20q0 60 108 60q24 5 24 36q0 189 100 324q96 92 220 92h32q118 -8 128 -32q-11 -108 -60 -108h-88q-164 0 -164 -272q0 -32 68 -44h84q56 0 72 -56v-20q0 -44 -72 -56h-76q-76 -12 -76 -76v-656q-14 -72 -72 -72h-32q-64 18 -64 64v632q0 112 -88 112 q-44 19 -44 52z" />
<glyph unicode="g" horiz-adv-x="899" d="M10 452v32q0 289 240 432q80 44 172 44h20q188 0 276 -156h4q0 136 84 136h4q47 0 68 -48l-4 -584v-212q0 -496 -476 -496q-189 0 -308 80q22 104 84 104q141 -48 224 -48h16q200 0 272 172q20 75 20 128v124q-141 -152 -292 -152h-12q-265 0 -372 300q-20 69 -20 144z M182 468q0 -239 196 -320l64 -8h24q174 0 236 208l4 116v108q0 192 -204 252h-64q-138 0 -224 -172q-32 -91 -32 -184z" />
<glyph unicode="h" horiz-adv-x="1104" d="M160 72v1236q18 64 64 64h36q65 0 72 -88v-492h4q112 168 292 168q225 0 308 -244q20 -64 20 -152v-496q0 -53 -76 -68h-20q-76 12 -76 76v376q0 304 -172 356l-44 8q-161 0 -232 -188l-4 -36v-504q0 -88 -88 -88h-8q-76 13 -76 72z" />
<glyph unicode="i" horiz-adv-x="514" d="M140 1184v28q21 92 92 92h28q78 0 92 -108q0 -68 -64 -96l-48 -8q-100 17 -100 92zM160 76v784q13 76 72 76h28q72 -14 72 -72v-796q0 -53 -76 -68h-20q-76 12 -76 76z" />
<glyph unicode="j" horiz-adv-x="510" d="M-50 -270q134 24 180 68q68 58 68 340v732q14 72 72 72h28q59 0 72 -76v-668q0 -449 -168 -536q-114 -52 -168 -52h-8q-76 0 -76 120zM178 1190v28q0 75 100 92h20q80 0 92 -112q0 -86 -104 -100h-8q-100 17 -100 92z" />
<glyph unicode="k" horiz-adv-x="1026" d="M200 72v1236q18 64 64 64h40q64 -18 64 -64v-792h4q289 351 344 396q50 24 84 24h68q32 -3 32 -28q0 -14 -284 -312q-12 -20 -12 -40v-20q0 -37 116 -176l232 -320v-16q-13 -24 -44 -24h-44q-112 0 -188 144q-188 258 -200 264l-24 8h-8q-62 0 -76 -160v-184 q0 -59 -76 -72h-16q-76 13 -76 72z" />
<glyph unicode="l" horiz-adv-x="522" d="M210 72v1236q18 64 64 64h36q65 0 72 -88v-1196q0 -88 -88 -88h-8q-76 13 -76 72z" />
<glyph unicode="m" horiz-adv-x="1569" d="M130 932l4 4h72q84 0 84 -148q128 168 288 168h16q175 0 256 -184h4q113 184 292 184h24q206 0 284 -240q20 -76 20 -228v-392q0 -69 -48 -92l-20 -4h-28q-72 14 -72 64v328q0 350 -164 416q-16 8 -44 8q-137 0 -200 -172l-8 -68v-500q-15 -76 -68 -76h-28q-72 14 -72 72 v384q0 308 -176 360h-20q-150 0 -216 -196l-4 -36v-496q-9 -88 -68 -88h-28q-72 15 -72 64v536z" />
<glyph unicode="n" horiz-adv-x="1108" d="M160 932l4 4h72q71 0 80 -84l4 -64h4q147 168 300 168h20q226 0 308 -260q12 -79 12 -144v-484q0 -52 -72 -68h-28q-72 15 -72 72v372q0 312 -172 364l-44 8q-150 0 -228 -176l-8 -60v-492q-9 -88 -68 -88h-32q-72 15 -72 64v536z" />
<glyph unicode="o" horiz-adv-x="1010" d="M50 464v36q0 296 256 432q90 44 188 44h28q315 0 424 -328q16 -70 16 -120v-60q0 -289 -256 -424q-94 -44 -188 -44h-48q-158 0 -292 128q-128 138 -128 336zM222 480q0 -231 184 -332q48 -20 104 -20q178 0 256 220q16 34 24 140q0 233 -176 340q-64 20 -108 20 q-186 0 -260 -212q-24 -75 -24 -156z" />
<glyph unicode="p" horiz-adv-x="1010" d="M50 906l4 4h76q68 0 76 -84l4 -60v-4l8 -8q165 176 312 176h32q238 0 356 -288q24 -103 24 -172v-28q0 -356 -300 -472q-58 -16 -104 -16h-40q-168 0 -264 140h-4l-4 -28v-408q0 -58 -88 -68q-80 11 -80 72v812zM226 370q0 -211 200 -276l60 -8q195 0 268 220 q16 72 16 132v12q0 247 -192 332l-84 12q-183 0 -256 -212q-12 -36 -12 -172v-40z" />
<glyph unicode="q" horiz-adv-x="1024" d="M60 460v40q0 290 232 432q88 48 176 48h32q171 0 272 -156q0 132 64 132l16 4h16q50 0 72 -64l-4 -60v-1108q0 -88 -92 -88q-80 13 -80 68v456h-4q-141 -160 -292 -160h-28q-234 0 -352 280q-28 92 -28 176zM232 488q0 -295 240 -348h36q179 0 244 196q12 14 12 184v52 q0 204 -196 268l-60 4q-185 0 -256 -216q-20 -73 -20 -140z" />
<glyph unicode="r" horiz-adv-x="692" d="M140 932l4 4h72q66 0 76 -84l4 -96h4q142 200 252 200h44l12 -12v-100q0 -34 -24 -48h-16q-171 0 -232 -172q-20 -69 -20 -144v-408q-11 -72 -72 -72h-24q-72 15 -72 64v488z" />
<glyph unicode="s" horiz-adv-x="702" d="M50 100v20l20 72q132 -64 228 -64h8q138 0 168 112l4 32q0 116 -228 184q-192 95 -192 232v32q0 165 200 240q48 16 108 16h32q118 0 212 -60v-4q-24 -92 -80 -92q-84 28 -156 28q-103 0 -144 -80q-8 -16 -8 -44v-16q0 -90 228 -164q192 -94 192 -244v-36 q0 -186 -236 -256l-88 -8h-44q-116 0 -200 52q-24 30 -24 48z" />
<glyph unicode="t" horiz-adv-x="674" d="M20 994v18q0 67 108 67q58 24 58 131q37 94 117 94h18q43 0 50 -63v-81q13 -85 85 -85h108q81 -13 81 -77q-13 -72 -99 -72h-94q-81 -12 -81 -81v-386q0 -297 130 -297h50l72 9l4 -5v-67q-22 -99 -99 -99h-85q-178 0 -243 184q-18 73 -18 158v490q0 99 -113 99 q-49 30 -49 63z" />
<glyph unicode="u" horiz-adv-x="1059" d="M110 388v504q18 64 64 64h36q65 0 72 -88v-356q0 -288 156 -360q16 -8 44 -8h16q147 0 220 172l8 60v504q13 76 72 76h36q49 0 64 -72v-600l8 -260l-4 -4h-72q-88 0 -88 148q-98 -117 -184 -148q-69 -20 -124 -20h-12q-220 0 -292 236q-20 64 -20 152z" />
<glyph unicode="v" horiz-adv-x="993" d="M70 884v12q0 32 44 40h48q91 0 136 -200q128 -337 188 -560q16 18 84 240l172 476q41 44 80 44h44q44 -7 44 -44v-4q-4 -27 -324 -836q-48 -52 -104 -52q-76 0 -112 84q-284 741 -300 800z" />
<glyph unicode="w" horiz-adv-x="1415" d="M40 876v16q0 37 52 44h36q90 0 120 -208q84 -287 140 -560h4q84 317 224 724q46 44 72 44h20q84 0 120 -184q100 -295 172 -580h4q52 242 188 708q46 56 80 56h40q40 0 48 -52q-228 -732 -272 -840q-44 -44 -92 -44q-94 0 -128 172q-112 328 -172 568l-4 4 q-67 -279 -216 -688q-41 -56 -100 -56q-93 0 -124 172q-200 645 -212 704z" />
<glyph unicode="x" horiz-adv-x="1010" d="M100 32v8q0 19 260 380l12 48v24q0 35 -124 204q-132 184 -132 204v16q10 20 32 20h60q87 0 172 -164l124 -188q199 336 236 336q36 16 64 16h44q24 0 36 -28q0 -27 -172 -256q-92 -127 -92 -168q0 -49 136 -232q131 -190 136 -216v-12q-13 -24 -44 -24h-36 q-107 0 -192 172l-128 196q-12 -8 -132 -208q-89 -160 -176 -160h-40q-44 0 -44 32z" />
<glyph unicode="y" horiz-adv-x="868" d="M30 874v16q0 36 48 40h48q86 0 132 -180q132 -329 196 -556q7 1 120 360l116 328q44 48 84 48h40q48 -4 48 -40v-12q0 -23 -268 -708q-184 -404 -284 -492q-110 -94 -208 -108q-13 21 -24 80v28q0 43 108 100q127 107 164 212q12 12 12 44z" />
<glyph unicode="z" horiz-adv-x="727" d="M-10 48v12q0 58 192 292q204 272 348 440v4h-392q-112 0 -112 72q0 55 72 68h576q68 -12 68 -52q0 -70 -172 -276l-364 -468l180 -4h304q49 0 60 -72q-18 -64 -76 -64h-596q-88 0 -88 48z" />
<glyph unicode="{" d="M301 677v24q0 7 92 24q64 36 64 128l-32 332q0 174 168 232l92 12h24q40 0 40 -56q0 -60 -56 -60q-90 -27 -120 -88l-12 -64v-4l28 -292q0 -165 -136 -200v-8q136 -61 136 -208l-28 -296q0 -160 168 -160q20 -28 20 -52q-5 -52 -20 -52q-146 0 -256 120q-48 65 -48 140 l32 316q0 60 -112 124q-43 46 -44 88z" />
<glyph unicode="|" d="M427 -418v1995h160v-1995h-160z" />
<glyph unicode="}" d="M284 -52q0 48 56 48q132 42 132 156l-32 288q0 146 104 200l32 8v8q-136 61 -136 204l32 288q0 164 -148 164h-12q-28 20 -28 44v24q5 40 16 40q111 0 232 -92q72 -72 72 -144v-32l-28 -296v-16q0 -62 120 -128q36 -50 36 -96v-8q0 -5 -84 -20q-72 -38 -72 -116v-24 l28 -288v-36q0 -172 -160 -228q-41 -16 -96 -16h-36q-28 20 -28 44v24z" />
<glyph unicode="~" d="M94 556v156q64 73 123 99t114 26q64 0 181.5 -49.5t172.5 -49.5q52 0 108.5 28t129.5 112v-156q-63 -72 -122 -97.5t-116 -25.5q-60 0 -177.5 48.5t-176.5 48.5q-51 0 -107.5 -28t-129.5 -112z" />
<glyph unicode="&#xa1;" horiz-adv-x="672" d="M871 797q0 15 14 31l80 88q20 20 29 20q16 0 29 -14l88 -101q10 -13 10 -26q0 -15 -16 -31l-82 -84q-15 -14 -29 -14q-13 0 -31 16l-80 86q-12 16 -12 29zM898 -433l80 1036h37l49 -1036q0 -46 -21 -69t-62 -23q-42 0 -62.5 23t-20.5 69z" />
<glyph unicode="&#xa2;" d="M-260 464v40q0 284 272 428q105 44 212 44h32q125 0 220 -48q-14 -108 -76 -108h-8q-71 20 -156 20q-218 0 -304 -220q-20 -78 -20 -136q0 -249 228 -332q50 -12 88 -12h20q74 0 156 24q68 -13 68 -108q-115 -56 -268 -56q-328 0 -440 308q-24 72 -24 156zM-245 16v20 q479 1263 504 1304q43 40 68 40h16q33 0 40 -44q-16 -61 -500 -1304q-41 -52 -84 -52h-8q-36 5 -36 36z" />
<glyph unicode="&#xa3;" d="M76 673v60h135q-58 143 -58 253q0 226 123.5 347t306.5 121h4q75 0 185.5 -14t110.5 -34v-161h-58q-5 61 -77 102q-72 31 -160 31h-2q-100 0 -190 -101q-84 -93 -84 -241q0 -15 1 -30q0 -135 53 -273h360v-60h-334q14 -30 31 -60q35 -63 35 -138q0 -161 -162 -375h402 q130 0 189 132l49 -1l-103 -231h-719l1 50q187 238 187 418q0 77 -34 143q-17 32 -31 62h-161z" />
<glyph unicode="&#xa4;" d="M122 413l118 117q-32 46 -48 103q-12 42 -12 84q0 44 13 87q16 55 47 99l-118 118l80 81l118 -118q44 30 99 46q44 14 89 14q41 0 83 -12q57 -17 102 -48l118 118l80 -81l-117 -117q31 -46 48 -102q12 -42 12 -85q0 -42 -12 -85q-17 -56 -48 -102l117 -117l-80 -81 l-118 118q-45 -32 -101 -48q-42 -12 -85 -12q-42 0 -85 12q-57 16 -102 48l-118 -118zM284 716q0 -28 9 -56q16 -59 57 -100q41 -40 99 -57q29 -8 58 -8t58 8q58 17 99 57q40 41 57 99q9 29 9 58t-9 58q-17 58 -57 99q-41 40 -100 57q-29 8 -58 8t-58 -9q-58 -17 -98 -56 q-39 -40 -56 -98q-10 -30 -10 -60z" />
<glyph unicode="&#xa5;" horiz-adv-x="1262" d="M8 1176q0 19 10.5 27.5t32.5 8.5q27 0 123 -8t164 -8h88q33 0 41 -6.5t8 -26.5q0 -8 -15 -14t-38 -6q-6 0 -18.5 2t-18.5 2q-24 0 -37.5 -9.5t-13.5 -25.5q0 -18 16.5 -52t46.5 -77l158 -221q13 -19 33 -53q41 -70 71 -70q9 0 16.5 5t14.5 15l277 396q8 12 13 26.5 t5 24.5q0 18 -10 27t-37 14q-15 2 -41 4q-47 3 -47 25q0 15 8 22.5t25 7.5q3 0 15 -1q56 -7 108 -7h139q30 0 65 1t37 1q11 0 18.5 -4.5t8.5 -11.5q0 -28 -38 -34q-18 -3 -27 -5q-63 -15 -147 -117l-12 -15l-169 -206h323q15 0 24 -6t9 -17q0 -15 -6 -20.5t-23 -5.5h-366 q-46 -57 -96.5 -112.5t-52.5 -59.5h511q18 0 25.5 -5.5t7.5 -17.5q0 -14 -7 -21t-22 -7h-530q0 -11 -1 -30.5t-1 -29.5l2 -215q0 -114 5.5 -150t20.5 -44q30 -17 107.5 -19t77.5 -31q0 -12 -10 -20t-25 -8q-2 0 -35.5 4t-64.5 4q-91 0 -208.5 -4t-142.5 -4q-31 0 -40 4 t-9 16t8 18.5t37 12.5q9 2 25 5q74 16 92 32q17 13 24 47t7 102l-2 242q0 19 -1.5 35t-4.5 32l-484 1q-14 0 -21 6.5t-7 19.5t6.5 19t21.5 6h467l-121 172h-344q-17 0 -23.5 5.5t-6.5 18.5q0 14 6 19.5t22 5.5h307q-43 57 -108 155q-131 197 -227 197q-7 0 -13 5.5t-6 11.5z " />
<glyph unicode="&#xa6;" d="M427 427h160v-858h-160v858zM427 633v858h160v-858h-160z" />
<glyph unicode="&#xa7;" d="M170 1130q0 148 89 237q82 79 216 86q8 1 17 1h3q66 0 163 -16.5t97 -41.5v-194h-51q-5 81 -80 132q-70 47 -149 51h-15q-78 0 -125 -44.5t-47 -117.5q0 -132 287 -269q149 -67 204.5 -143.5t55.5 -187.5q0 -171 -101 -282q-47 -39 -99 -64q108 -56 154 -118 q55 -77 55 -187q0 -171 -101 -283q-124 -102 -277 -105v1q-6 -1 -13 -1h-3q-66 0 -163 16.5t-97 41.5v194h51q5 -81 80 -132q68 -45 145 -50q113 6 185 69q72 64 72 165q0 125 -316 276q-123 64 -175.5 137t-52.5 177q0 148 89 237q67 65 170 82l-40 19q-123 64 -175.5 137 t-52.5 177zM297 571q0 -123 248 -250q56 16 97 53q73 65 73 166q0 5 -1 10h-2q-1 14 -4 27q-22 61 -113 127q-59 29 -126 29q-78 0 -125 -44.5t-47 -117.5z" />
<glyph unicode="&#xa8;" horiz-adv-x="1024" d="M209 1263q0 13 14 26l71 72q13 12 25 12q11 0 27 -14l69 -73q10 -14 10 -25q0 -13 -12 -27l-69 -75q-17 -17 -25 -17q-14 0 -25 12l-76 86q-9 12 -9 23zM574 1263q0 13 14 26l71 72q13 12 25 12q11 0 27 -13l69 -74q10 -14 10 -25q0 -13 -12 -26l-69 -76q-17 -17 -25 -17 q-14 0 -25 12l-76 87q-9 11 -9 22z" />
<glyph unicode="&#xa9;" horiz-adv-x="1674" d="M100 718q0 148 55.5 283t159.5 238q102 104 238.5 160.5t286.5 56.5q145 0 280 -56.5t239 -160.5q102 -101 158.5 -238t56.5 -283q0 -147 -56.5 -282t-162.5 -240q-105 -105 -239 -159.5t-283 -54.5q-146 0 -278 55.5t-238 160.5q-106 104 -161.5 237.5t-55.5 282.5z M160 718q0 -137 51 -259t148 -219q98 -96 219 -147t256 -51q137 0 259.5 50.5t219.5 145.5q97 98 149 221.5t52 258.5q0 134 -52 259.5t-145 219.5q-96 96 -220 147.5t-258 51.5q-137 0 -262 -51.5t-220 -147.5t-146 -219.5t-51 -259.5zM351 719q0 126 65.5 244t187.5 184.5 t254 66.5q38 0 75 -6.5t76 -20.5q5 -1 9 -1q19 0 26 30h42l72 -198h-44q-52 94 -131 124q-72 26 -147 26h-15q-86 -8 -166.5 -71t-121.5 -177q-33 -90 -33 -184q0 -25 2 -50q11 -121 69.5 -224t149.5 -152q72 -40 166 -42q124 0 194 56t70 126h53v-100q0 -46 -96.5 -86.5 t-242.5 -40.5q-142 0 -264 68t-186 185t-64 243z" />
<glyph unicode="&#xaa;" horiz-adv-x="669" d="M121 865v17q0 150 230 192q59 10 132 10h8q0 109 -71 129q-33 10 -56 10h-21q-76 0 -150 -41q-14 22 -14 36v12q0 51 172 70h26q160 0 220 -188q7 -68 7 -122v-156q0 -47 8 -106l-2 -2h-53q-55 0 -55 70q-99 -82 -177 -82h-27q-130 0 -174 125zM126 558v24q13 36 32 36 h418q27 0 32 -44v-8q-4 -44 -30 -44h-424q-15 0 -28 36zM235 882q0 -79 92 -91l11 -3q156 17 156 142v82h-27q-175 0 -222 -77q-10 -23 -10 -46v-7z" />
<glyph unicode="&#xab;" horiz-adv-x="944" d="M174 479l342 303h14v-37l-205 -266l205 -266v-37h-14zM487 479l342 303h14v-37l-205 -266l205 -266v-37h-14z" />
<glyph unicode="&#xac;" d="M87 667v100h840v-491l-1 -1h-98v392h-741z" />
<glyph unicode="&#xad;" horiz-adv-x="670" d="M88 492v12q0 45 68 56h340q68 -11 68 -56v-16q0 -50 -92 -56h-296q-88 7 -88 60z" />
<glyph unicode="&#xae;" horiz-adv-x="1674" d="M100 718q0 148 55.5 283t159.5 238q102 104 238.5 160.5t286.5 56.5q145 0 280 -56.5t239 -160.5q102 -101 158.5 -238t56.5 -283q0 -147 -56.5 -282t-162.5 -240q-105 -105 -239 -159.5t-283 -54.5q-146 0 -278 55.5t-238 160.5q-106 104 -161.5 237.5t-55.5 282.5z M160 718q0 -137 51 -259t148 -219q98 -96 219 -147t256 -51q137 0 259.5 50.5t219.5 145.5q97 98 149 221.5t52 258.5q0 134 -52 259.5t-145 219.5q-96 96 -220 147.5t-258 51.5q-137 0 -262 -51.5t-220 -147.5t-146 -219.5t-51 -259.5zM524 269v50h43q37 0 37 121v538 q0 121 -37 121h-43v70h356q64 -1 125 -42q60 -41 92.5 -114t32.5 -152q0 -78 -32 -150.5t-114 -134.5l82 -116q100 -141 150 -141h34v-50h-346v50h45q30 0 30 22q0 29 -69 114l-75 102q-42 0 -84 42v-159q0 -121 36 -121h53v-50h-316zM751 1099v-374l3 -8q23 -56 56 -81 q29 -22 56 -22h6q31 4 61.5 38.5t46.5 97.5q13 50 13 103q0 13 -1 27q-4 67 -28 124.5t-56.5 76t-63.5 18.5h-93z" />
<glyph unicode="&#xaf;" horiz-adv-x="670" d="M116 1249v12q0 45 68 56h340q68 -11 68 -56v-16q0 -50 -92 -56h-296q-88 7 -88 60z" />
<glyph unicode="&#xb0;" horiz-adv-x="674" d="M60 1164q0 116 81.5 197t197.5 81q115 0 196 -81.5t81 -196.5q0 -114 -82 -196t-197 -82q-117 0 -197 81t-80 197zM130 1163q0 -87 61 -147t148 -60t147 60t60 147t-60.5 148t-146.5 61t-147.5 -61t-61.5 -148z" />
<glyph unicode="&#xb1;" d="M87 -9v24q25 44 72 44h288q76 0 76 88v296q11 68 56 68h12q45 0 56 -68v-296q0 -88 76 -88h288q72 -11 72 -56v-8q0 -50 -88 -56h-276q-72 -10 -72 -76v-312q-10 -68 -64 -68h-4q-56 15 -56 68v300q0 75 -64 88h-280q-92 6 -92 52zM87 638v24q25 44 72 44h288q76 0 76 88 v296q11 68 56 68h12q45 0 56 -68v-296q0 -88 76 -88h288q72 -11 72 -56v-8q0 -50 -88 -56h-276q-72 -10 -72 -76v-312q-10 -68 -64 -68h-4q-56 15 -56 68v300q0 75 -64 88h-280q-92 6 -92 52z" />
<glyph unicode="&#xb2;" d="M0 48v12q0 63 164 204q436 455 436 636q0 163 -148 220l-100 16q-122 0 -264 -104h-8l-24 64v28q0 76 200 132q51 20 120 20h20q296 0 368 -288l8 -80q0 -276 -404 -640l-128 -124h464q82 0 96 -56v-28q0 -46 -68 -60h-668q-52 0 -64 48z" />
<glyph unicode="&#xb3;" d="M140 116v20q17 80 32 80q134 -80 276 -80q224 0 276 200l4 40q0 163 -176 228q-68 28 -200 28q-44 27 -44 56v12q0 64 96 64q124 0 244 108q32 49 32 92v20q0 115 -132 164l-60 8h-40q-106 0 -236 -80q-24 51 -24 72v16q0 95 268 132h52q276 0 340 -236q8 -22 8 -68 q0 -199 -228 -288v-8q276 -134 276 -328q0 -225 -240 -332q-93 -36 -180 -36h-68q-107 0 -240 56q-36 35 -36 60z" />
<glyph unicode="&#xb4;" horiz-adv-x="1024" d="M316 1078l291 297q35 35 55.5 47t40.5 12q33 0 53.5 -20t20.5 -51q0 -22 -15.5 -42t-46.5 -40l-330 -203h-69z" />
<glyph unicode="&#xb5;" horiz-adv-x="1180" />
<glyph unicode="&#xb6;" horiz-adv-x="1024" d="M93 1086q0 157 107.5 253t285.5 96h443v-70h-127v-1365h-82v1365h-166v-1365h-84v738q-174 8 -275.5 102.5t-101.5 245.5z" />
<glyph unicode="&#xb7;" horiz-adv-x="508" d="M148 608v14q14 68 68 68h14q57 0 68 -79q0 -60 -79 -71q-71 14 -71 68z" />
<glyph unicode="&#x2219;" horiz-adv-x="508" d="M148 608v14q14 68 68 68h14q57 0 68 -79q0 -60 -79 -71q-71 14 -71 68z" />
<glyph unicode="&#xb8;" horiz-adv-x="1024" d="M360 -290q85 -52 152 -52q66 0 94.5 21.5t28.5 66.5t-49 64q-40 16 -102 16q-16 0 -34 -2l48 176h63l-37 -104q32 4 62 5q86 0 134 -40.5t48 -113.5q0 -76 -58.5 -120.5t-160.5 -44.5q-109 0 -189 32v96z" />
<glyph unicode="&#xb9;" d="M300 1052v16q0 66 132 120q109 68 192 68h20q45 0 60 -68v-1124q-13 -64 -84 -64h-4q-76 13 -76 72v1016l-4 4v4q-164 -92 -184 -92q-52 8 -52 48z" />
<glyph unicode="&#xba;" horiz-adv-x="700" d="M67 992v22q0 178 169 259q59 27 124 27h19q207 0 279 -197q11 -42 11 -72v-36q0 -174 -169 -255q-62 -26 -124 -26h-32q-104 0 -193 77q-84 83 -84 201zM127 558v24q13 36 32 36h418q27 0 32 -44v-8q-5 -44 -30 -44h-424q-15 0 -28 36zM181 1002q0 -139 121 -199 q32 -12 69 -12q117 0 169 132q10 20 15 84q0 140 -116 204q-42 12 -71 12q-123 0 -172 -127q-15 -45 -15 -94z" />
<glyph unicode="&#xbb;" horiz-adv-x="944" d="M101 176v37l205 266l-205 266v37h14l342 -303l-342 -303h-14zM414 176v37l205 266l-205 266v37h14l342 -303l-342 -303h-14z" />
<glyph unicode="&#xbc;" horiz-adv-x="1708" />
<glyph unicode="&#xbd;" horiz-adv-x="2370" d="M300 1052v16q0 66 132 120q109 68 192 68h20q45 0 60 -68v-1124q-13 -64 -84 -64h-4q-76 13 -76 72v1016l-4 4v4q-164 -92 -184 -92q-52 8 -52 48zM672 -29l940 1461h84l-938 -1461h-86zM1466 48v12q0 63 164 204q436 455 436 636q0 163 -148 220l-100 16 q-122 0 -264 -104h-8l-24 64v28q0 76 200 132q51 20 120 20h20q296 0 368 -288l8 -80q0 -276 -404 -640l-128 -124h464q82 0 96 -56v-28q0 -46 -68 -60h-668q-52 0 -64 48z" />
<glyph unicode="&#xbe;" horiz-adv-x="1708" />
<glyph unicode="&#xbf;" horiz-adv-x="748" d="M930 -61q0 154 204 372q72 108 72 224v16q10 48 72 48q80 -7 80 -28q0 -239 -156 -404q-96 -123 -96 -204v-28q0 -111 128 -148l56 -4q88 0 192 56h4l20 -68v-20q0 -74 -196 -104l-48 -4h-28q-225 0 -296 204l-8 60v32zM1190 835v16q0 67 88 80q76 0 88 -92 q-16 -84 -80 -84h-16q-80 16 -80 80z" />
<glyph unicode="&#xc0;" horiz-adv-x="1540" d="M300 32v24q364 1094 408 1200q45 44 80 44h68q91 0 136 -200q328 -945 356 -1048v-8q-7 -44 -44 -44h-56q-84 29 -84 72l-108 296q-46 40 -84 40h-296q-112 0 -144 -180q-63 -196 -88 -208q-37 -20 -56 -20h-44q-27 0 -44 32zM654 588q0 -48 68 -48h224q56 6 56 44v8 q-172 526 -172 552h-4q-52 -197 -172 -556zM657 1727q0 31 20.5 51t53.5 20q20 0 40.5 -12t55.5 -47l291 -296h-69l-330 202q-31 20 -46.5 40t-15.5 42z" />
<glyph unicode="&#xc1;" horiz-adv-x="1540" d="M300 32v24q364 1094 408 1200q45 44 80 44h68q91 0 136 -200q328 -945 356 -1048v-8q-7 -44 -44 -44h-56q-84 29 -84 72l-108 296q-46 40 -84 40h-296q-112 0 -144 -180q-63 -196 -88 -208q-37 -20 -56 -20h-44q-27 0 -44 32zM654 588q0 -48 68 -48h224q56 6 56 44v8 q-172 526 -172 552h-4q-52 -197 -172 -556zM810 1442l291 297q35 35 55.5 47t40.5 12q33 0 53.5 -20t20.5 -51q0 -22 -15.5 -42t-46.5 -40l-330 -203h-69z" />
<glyph unicode="&#xc2;" horiz-adv-x="1540" d="M300 32v24q364 1094 408 1200q45 44 80 44h68q91 0 136 -200q328 -945 356 -1048v-8q-7 -44 -44 -44h-56q-84 29 -84 72l-108 296q-46 40 -84 40h-296q-112 0 -144 -180q-63 -196 -88 -208q-37 -20 -56 -20h-44q-27 0 -44 32zM654 588q0 -48 68 -48h224q56 6 56 44v8 q-172 526 -172 552h-4q-52 -197 -172 -556zM673 1443l232 355h118l232 -355h-58l-233 216l-233 -216h-58z" />
<glyph unicode="&#xc3;" horiz-adv-x="1540" d="M300 32v24q364 1094 408 1200q45 44 80 44h68q91 0 136 -200q328 -945 356 -1048v-8q-7 -44 -44 -44h-56q-84 29 -84 72l-108 296q-46 40 -84 40h-296q-112 0 -144 -180q-63 -196 -88 -208q-37 -20 -56 -20h-44q-27 0 -44 32zM654 588q0 -48 68 -48h224q56 6 56 44v8 q-172 526 -172 552h-4q-52 -197 -172 -556zM677 1496q19 106 68 158.5t129 52.5q46 -1 113 -24q64 -23 112 -23h4q36 0 58 20t36 66h54q-20 -103 -68.5 -154t-126.5 -51h-4q-50 0 -113 23q-66 24 -114 24q-39 0 -60.5 -20.5t-33.5 -71.5h-54z" />
<glyph unicode="&#xc4;" horiz-adv-x="1540" d="M300 32v24q364 1094 408 1200q45 44 80 44h68q91 0 136 -200q328 -945 356 -1048v-8q-7 -44 -44 -44h-56q-84 29 -84 72l-108 296q-46 40 -84 40h-296q-112 0 -144 -180q-63 -196 -88 -208q-37 -20 -56 -20h-44q-27 0 -44 32zM654 588q0 -48 68 -48h224q56 6 56 44v8 q-172 526 -172 552h-4q-52 -197 -172 -556zM674 1627q0 13 14 26l71 72q13 12 25 12q11 0 27 -14l69 -73q10 -14 10 -25q0 -13 -12 -27l-69 -75q-17 -17 -25 -17q-14 0 -25 12l-76 86q-9 12 -9 23zM1039 1627q0 13 14 26l71 72q13 12 25 12q11 0 27 -13l69 -74 q10 -14 10 -25q0 -13 -12 -26l-69 -76q-17 -17 -25 -17q-14 0 -25 12l-76 87q-9 11 -9 22z" />
<glyph unicode="&#xc5;" horiz-adv-x="1540" d="M300 32v24q364 1094 408 1200q45 44 80 44h68q91 0 136 -200q328 -945 356 -1048v-8q-7 -44 -44 -44h-56q-84 29 -84 72l-108 296q-46 40 -84 40h-296q-112 0 -144 -180q-63 -196 -88 -208q-37 -20 -56 -20h-44q-27 0 -44 32zM654 588q0 -48 68 -48h224q56 6 56 44v8 q-172 526 -172 552h-4q-52 -197 -172 -556zM787 1621q0 75 51 126t125 51q76 0 127.5 -51.5t51.5 -125.5q0 -75 -51.5 -126.5t-127.5 -51.5q-74 0 -125 51.5t-51 126.5zM863 1621q0 -42 29 -71t71 -29t71 29t29 71q0 40 -29.5 69.5t-70.5 29.5t-70.5 -29.5t-29.5 -69.5z" />
<glyph unicode="&#xc6;" horiz-adv-x="1923" d="M300 32v24q364 1094 408 1200q45 44 80 44h68q91 0 136 -200q328 -945 356 -1048v-8q-7 -44 -44 -44h-56q-84 29 -84 72l-108 296q-46 40 -84 40h-296q-112 0 -144 -180q-63 -196 -88 -208q-37 -20 -56 -20h-44q-27 0 -44 32zM654 588q0 -48 68 -48h224q56 6 56 44v8 q-172 526 -172 552h-4q-52 -197 -172 -556zM1122 64v1172q18 64 64 64h576q51 0 64 -72v-4q0 -50 -68 -64h-368q-100 0 -100 -80v-252q11 -80 80 -80h356q72 -11 72 -72q0 -54 -76 -68h-356q-76 0 -76 -88v-300q0 -80 92 -80h408q51 0 64 -68v-4q-11 -68 -68 -68h-596 q-68 14 -68 64z" />
<glyph unicode="&#xc7;" horiz-adv-x="1399" d="M200 644v40q0 380 332 580q157 80 324 80h40q266 -15 292 -64q-20 -112 -88 -112q-140 36 -212 36q-369 0 -484 -344q-24 -88 -24 -168v-44q0 -328 272 -460q105 -44 228 -44q77 0 220 36q71 0 88 -116q-134 -64 -344 -64h-4q-445 0 -600 400q-40 112 -40 244zM490 -290 q85 -52 152 -52q66 0 94.5 21.5t28.5 66.5t-49 64q-40 16 -102 16q-16 0 -34 -2l48 176h63l-37 -104q32 4 62 5q86 0 134 -40.5t48 -113.5q0 -76 -58.5 -120.5t-160.5 -44.5q-109 0 -189 32v96z" />
<glyph unicode="&#xc8;" horiz-adv-x="1151" d="M210 64v1172q18 64 64 64h576q51 0 64 -72v-4q0 -50 -68 -64h-368q-100 0 -100 -80v-252q11 -80 80 -80h356q72 -11 72 -72q0 -54 -76 -68h-356q-76 0 -76 -88v-300q0 -80 92 -80h408q51 0 64 -68v-4q-11 -68 -68 -68h-596q-68 14 -68 64zM269 1727q0 31 20.5 51t53.5 20 q20 0 40.5 -12t55.5 -47l291 -296h-69l-330 202q-31 20 -46.5 40t-15.5 42z" />
<glyph unicode="&#xc9;" horiz-adv-x="1151" d="M210 64v1172q18 64 64 64h576q51 0 64 -72v-4q0 -50 -68 -64h-368q-100 0 -100 -80v-252q11 -80 80 -80h356q72 -11 72 -72q0 -54 -76 -68h-356q-76 0 -76 -88v-300q0 -80 92 -80h408q51 0 64 -68v-4q-11 -68 -68 -68h-596q-68 14 -68 64zM422 1442l291 297 q35 35 55.5 47t40.5 12q33 0 53.5 -20t20.5 -51q0 -22 -15.5 -42t-46.5 -40l-330 -203h-69z" />
<glyph unicode="&#xca;" horiz-adv-x="1151" d="M210 64v1172q18 64 64 64h576q51 0 64 -72v-4q0 -50 -68 -64h-368q-100 0 -100 -80v-252q11 -80 80 -80h356q72 -11 72 -72q0 -54 -76 -68h-356q-76 0 -76 -88v-300q0 -80 92 -80h408q51 0 64 -68v-4q-11 -68 -68 -68h-596q-68 14 -68 64zM285 1443l232 355h118l232 -355 h-58l-233 216l-233 -216h-58z" />
<glyph unicode="&#xcb;" horiz-adv-x="1151" d="M210 64v1172q18 64 64 64h576q51 0 64 -72v-4q0 -50 -68 -64h-368q-100 0 -100 -80v-252q11 -80 80 -80h356q72 -11 72 -72q0 -54 -76 -68h-356q-76 0 -76 -88v-300q0 -80 92 -80h408q51 0 64 -68v-4q-11 -68 -68 -68h-596q-68 14 -68 64zM286 1627q0 13 14 26l71 72 q13 12 25 12q11 0 27 -14l69 -73q10 -14 10 -25q0 -13 -12 -27l-69 -75q-17 -17 -25 -17q-14 0 -25 12l-76 86q-9 12 -9 23zM651 1627q0 13 14 26l71 72q13 12 25 12q11 0 27 -13l69 -74q10 -14 10 -25q0 -13 -12 -26l-69 -76q-17 -17 -25 -17q-14 0 -25 12l-76 87 q-9 11 -9 22z" />
<glyph unicode="&#xcc;" horiz-adv-x="657" d="M267 1727q0 31 20.5 51t53.5 20q20 0 40.5 -12t55.5 -47l291 -296h-69l-330 202q-31 20 -46.5 40t-15.5 42zM270 64v1172q18 64 64 64h40q64 -18 64 -64v-1172q0 -50 -68 -64h-32q-68 14 -68 64z" />
<glyph unicode="&#xcd;" horiz-adv-x="657" d="M420 64v1172q18 64 64 64h40q64 -18 64 -64v-1172q0 -50 -68 -64h-32q-68 14 -68 64zM570 1442l291 297q35 35 55.5 47t40.5 12q33 0 53.5 -20t20.5 -51q0 -22 -15.5 -42t-46.5 -40l-330 -203h-69z" />
<glyph unicode="&#xce;" horiz-adv-x="657" d="M283 64v1172q18 64 64 64h40q64 -18 64 -64v-1172q0 -50 -68 -64h-32q-68 14 -68 64zM296 1443l232 355h118l232 -355h-58l-233 216l-233 -216h-58z" />
<glyph unicode="&#xcf;" horiz-adv-x="657" d="M284 64v1172q18 64 64 64h40q64 -18 64 -64v-1172q0 -50 -68 -64h-32q-68 14 -68 64zM297 1627q0 13 14 26l71 72q13 12 25 12q11 0 27 -14l69 -73q10 -14 10 -25q0 -13 -12 -27l-69 -75q-17 -17 -25 -17q-14 0 -25 12l-76 86q-9 12 -9 23zM662 1627q0 13 14 26l71 72 q13 12 25 12q11 0 27 -13l69 -74q10 -14 10 -25q0 -13 -12 -26l-69 -76q-17 -17 -25 -17q-14 0 -25 12l-76 87q-9 11 -9 22z" />
<glyph unicode="&#xd0;" horiz-adv-x="1518" d="M240 80v1212q30 24 324 32h56q480 0 636 -344q52 -124 52 -284v-12q0 -457 -384 -620q-164 -64 -380 -64q-288 0 -288 44q-16 18 -16 36zM240 650v24q26 36 64 36h836q55 0 64 -44v-8q-9 -44 -60 -44h-848q-29 0 -56 36zM408 148l100 -8h104q347 0 480 304q40 129 40 248 q0 342 -284 460q-114 36 -216 36h-96q-128 0 -128 -104v-936z" />
<glyph unicode="&#xd1;" horiz-adv-x="1554" d="M310 64v1172q18 64 64 64h56q87 0 176 -180q359 -539 536 -892h4q-20 312 -20 672v312q7 88 72 88h24q64 -18 64 -64v-1168q-15 -68 -60 -68h-48q-85 0 -188 204q-321 489 -532 884v-4q12 -374 12 -640v-368q0 -59 -64 -76h-28q-68 14 -68 64zM511 1496q19 106 68 158.5 t129 52.5q46 -1 113 -24q64 -23 112 -23h4q36 0 58 20t36 66h54q-20 -103 -68.5 -154t-126.5 -51h-4q-50 0 -113 23q-66 24 -114 24q-39 0 -60.5 -20.5t-33.5 -71.5h-54z" />
<glyph unicode="&#xd2;" horiz-adv-x="1614" d="M210 644v36q0 407 328 600q124 64 260 64h28q351 0 512 -340q60 -139 60 -284v-76q0 -349 -272 -552q-151 -92 -324 -92h-12q-387 0 -544 404q-36 123 -36 240zM390 660q0 -307 216 -464q90 -56 184 -56h28q267 0 376 336q20 64 28 200q0 316 -224 480q-90 48 -172 48 h-40q-218 0 -336 -244q-60 -134 -60 -300zM497 1727q0 31 20.5 51t53.5 20q20 0 40.5 -12t55.5 -47l291 -296h-69l-330 202q-31 20 -46.5 40t-15.5 42z" />
<glyph unicode="&#xd3;" horiz-adv-x="1614" d="M210 644v36q0 407 328 600q124 64 260 64h28q351 0 512 -340q60 -139 60 -284v-76q0 -349 -272 -552q-151 -92 -324 -92h-12q-387 0 -544 404q-36 123 -36 240zM390 660q0 -307 216 -464q90 -56 184 -56h28q267 0 376 336q20 64 28 200q0 316 -224 480q-90 48 -172 48 h-40q-218 0 -336 -244q-60 -134 -60 -300zM650 1442l291 297q35 35 55.5 47t40.5 12q33 0 53.5 -20t20.5 -51q0 -22 -15.5 -42t-46.5 -40l-330 -203h-69z" />
<glyph unicode="&#xd4;" horiz-adv-x="1614" d="M210 644v36q0 407 328 600q124 64 260 64h28q351 0 512 -340q60 -139 60 -284v-76q0 -349 -272 -552q-151 -92 -324 -92h-12q-387 0 -544 404q-36 123 -36 240zM390 660q0 -307 216 -464q90 -56 184 -56h28q267 0 376 336q20 64 28 200q0 316 -224 480q-90 48 -172 48 h-40q-218 0 -336 -244q-60 -134 -60 -300zM513 1443l232 355h118l232 -355h-58l-233 216l-233 -216h-58z" />
<glyph unicode="&#xd5;" horiz-adv-x="1614" d="M210 644v36q0 407 328 600q124 64 260 64h28q351 0 512 -340q60 -139 60 -284v-76q0 -349 -272 -552q-151 -92 -324 -92h-12q-387 0 -544 404q-36 123 -36 240zM390 660q0 -307 216 -464q90 -56 184 -56h28q267 0 376 336q20 64 28 200q0 316 -224 480q-90 48 -172 48 h-40q-218 0 -336 -244q-60 -134 -60 -300zM517 1496q19 106 68 158.5t129 52.5q46 -1 113 -24q64 -23 112 -23h4q36 0 58 20t36 66h54q-20 -103 -68.5 -154t-126.5 -51h-4q-50 0 -113 23q-66 24 -114 24q-39 0 -60.5 -20.5t-33.5 -71.5h-54z" />
<glyph unicode="&#xd6;" horiz-adv-x="1614" d="M210 644v36q0 407 328 600q124 64 260 64h28q351 0 512 -340q60 -139 60 -284v-76q0 -349 -272 -552q-151 -92 -324 -92h-12q-387 0 -544 404q-36 123 -36 240zM390 660q0 -307 216 -464q90 -56 184 -56h28q267 0 376 336q20 64 28 200q0 316 -224 480q-90 48 -172 48 h-40q-218 0 -336 -244q-60 -134 -60 -300zM514 1627q0 13 14 26l71 72q13 12 25 12q11 0 27 -14l69 -73q10 -14 10 -25q0 -13 -12 -27l-69 -75q-17 -17 -25 -17q-14 0 -25 12l-76 86q-9 12 -9 23zM879 1627q0 13 14 26l71 72q13 12 25 12q11 0 27 -13l69 -74q10 -14 10 -25 q0 -13 -12 -26l-69 -76q-17 -17 -25 -17q-14 0 -25 12l-76 87q-9 11 -9 22z" />
<glyph unicode="&#xd7;" d="M87 638v24q25 44 72 44h288q76 0 76 88v296q11 68 56 68h12q45 0 56 -68v-296q0 -88 76 -88h288q72 -11 72 -56v-8q0 -50 -88 -56h-276q-72 -10 -72 -76v-312q-10 -68 -64 -68h-4q-56 15 -56 68v300q0 75 -64 88h-280q-92 6 -92 52z" />
<glyph unicode="&#xd8;" horiz-adv-x="1614" d="M210 644v36q0 407 328 600q124 64 260 64h28q351 0 512 -340q60 -139 60 -284v-76q0 -349 -272 -552q-151 -92 -324 -92h-12q-387 0 -544 404q-36 123 -36 240zM390 660q0 -307 216 -464q90 -56 184 -56h28q267 0 376 336q20 64 28 200q0 316 -224 480q-90 48 -172 48 h-40q-218 0 -336 -244q-60 -134 -60 -300zM451 16v20q479 1263 504 1304q43 40 68 40h16q33 0 40 -44q-16 -61 -500 -1304q-41 -52 -84 -52h-8q-36 5 -36 36z" />
<glyph unicode="&#xd9;" horiz-adv-x="1501" d="M220 564v712l8 8h156l8 -8v-676q0 -460 304 -460q241 0 300 268q12 58 12 136v732l8 8h92q72 -11 72 -72v-564q0 -373 -224 -580q-116 -68 -244 -68h-40q-329 0 -428 336q-24 101 -24 228zM393 1727q0 31 20.5 51t53.5 20q20 0 40.5 -12t55.5 -47l291 -296h-69l-330 202 q-31 20 -46.5 40t-15.5 42z" />
<glyph unicode="&#xda;" horiz-adv-x="1501" d="M220 564v712l8 8h156l8 -8v-676q0 -460 304 -460q241 0 300 268q12 58 12 136v732l8 8h92q72 -11 72 -72v-564q0 -373 -224 -580q-116 -68 -244 -68h-40q-329 0 -428 336q-24 101 -24 228zM546 1442l291 297q35 35 55.5 47t40.5 12q33 0 53.5 -20t20.5 -51 q0 -22 -15.5 -42t-46.5 -40l-330 -203h-69z" />
<glyph unicode="&#xdb;" horiz-adv-x="1501" d="M220 564v712l8 8h156l8 -8v-676q0 -460 304 -460q241 0 300 268q12 58 12 136v732l8 8h92q72 -11 72 -72v-564q0 -373 -224 -580q-116 -68 -244 -68h-40q-329 0 -428 336q-24 101 -24 228zM409 1443l232 355h118l232 -355h-58l-233 216l-233 -216h-58z" />
<glyph unicode="&#xdc;" horiz-adv-x="1501" d="M220 564v712l8 8h156l8 -8v-676q0 -460 304 -460q241 0 300 268q12 58 12 136v732l8 8h92q72 -11 72 -72v-564q0 -373 -224 -580q-116 -68 -244 -68h-40q-329 0 -428 336q-24 101 -24 228zM410 1627q0 13 14 26l71 72q13 12 25 12q11 0 27 -14l69 -73q10 -14 10 -25 q0 -13 -12 -27l-69 -75q-17 -17 -25 -17q-14 0 -25 12l-76 86q-9 12 -9 23zM775 1627q0 13 14 26l71 72q13 12 25 12q11 0 27 -13l69 -74q10 -14 10 -25q0 -13 -12 -26l-69 -76q-17 -17 -25 -17q-14 0 -25 12l-76 87q-9 11 -9 22z" />
<glyph unicode="&#xdd;" horiz-adv-x="1233" d="M120 1256v20q14 24 36 24h60q92 0 168 -200q208 -396 208 -420h4q6 1 148 292l156 288q48 40 84 40h60q22 0 36 -24v-12q0 -24 -112 -208q-263 -444 -276 -484q-20 -60 -20 -136v-368q-14 -68 -60 -68h-48q-57 0 -64 96v380q0 103 -124 304q-239 428 -256 476zM446 1442 l291 297q35 35 55.5 47t40.5 12q33 0 53.5 -20t20.5 -51q0 -22 -15.5 -42t-46.5 -40l-330 -203h-69z" />
<glyph unicode="&#xde;" horiz-adv-x="1120" d="M200 -128v1208q0 24 292 32h48q341 0 440 -240q20 -64 20 -116v-52q0 -283 -328 -376q-75 -16 -136 -16h-92l-76 8v-448q0 -59 -76 -72h-16q-76 13 -76 72zM270 64v1172q18 64 64 64h40q64 -18 64 -64v-1172q0 -50 -68 -64h-32q-68 14 -68 64zM368 460q61 -12 116 -12h40 q201 0 280 148q28 51 28 136q0 180 -196 236l-88 8h-96q-72 0 -84 -100v-416z" />
<glyph unicode="&#xdf;" horiz-adv-x="1251" />
<glyph unicode="&#xe0;" horiz-adv-x="922" d="M90 252v28q0 250 348 320q90 16 200 16h12q0 182 -108 216q-49 16 -84 16h-32q-115 0 -228 -68q-20 36 -20 60v20q0 85 260 116h40q242 0 332 -312q12 -114 12 -204v-260q0 -79 12 -176l-4 -4h-80q-84 0 -84 116q-149 -136 -268 -136h-40q-198 0 -264 208zM155 1363 q0 31 20.5 51t53.5 20q20 0 40.5 -12t55.5 -47l291 -296h-69l-330 202q-31 20 -46.5 40t-15.5 42zM262 280q0 -132 140 -152l16 -4q236 27 236 236v136h-40q-265 0 -336 -128q-16 -38 -16 -76v-12z" />
<glyph unicode="&#xe1;" horiz-adv-x="922" d="M90 252v28q0 250 348 320q90 16 200 16h12q0 182 -108 216q-49 16 -84 16h-32q-115 0 -228 -68q-20 36 -20 60v20q0 85 260 116h40q242 0 332 -312q12 -114 12 -204v-260q0 -79 12 -176l-4 -4h-80q-84 0 -84 116q-149 -136 -268 -136h-40q-198 0 -264 208zM262 280 q0 -132 140 -152l16 -4q236 27 236 236v136h-40q-265 0 -336 -128q-16 -38 -16 -76v-12zM308 1078l291 297q35 35 55.5 47t40.5 12q33 0 53.5 -20t20.5 -51q0 -22 -15.5 -42t-46.5 -40l-330 -203h-69z" />
<glyph unicode="&#xe2;" horiz-adv-x="922" d="M90 252v28q0 250 348 320q90 16 200 16h12q0 182 -108 216q-49 16 -84 16h-32q-115 0 -228 -68q-20 36 -20 60v20q0 85 260 116h40q242 0 332 -312q12 -114 12 -204v-260q0 -79 12 -176l-4 -4h-80q-84 0 -84 116q-149 -136 -268 -136h-40q-198 0 -264 208zM171 1079 l232 355h118l232 -355h-58l-233 216l-233 -216h-58zM262 280q0 -132 140 -152l16 -4q236 27 236 236v136h-40q-265 0 -336 -128q-16 -38 -16 -76v-12z" />
<glyph unicode="&#xe3;" horiz-adv-x="922" d="M90 252v28q0 250 348 320q90 16 200 16h12q0 182 -108 216q-49 16 -84 16h-32q-115 0 -228 -68q-20 36 -20 60v20q0 85 260 116h40q242 0 332 -312q12 -114 12 -204v-260q0 -79 12 -176l-4 -4h-80q-84 0 -84 116q-149 -136 -268 -136h-40q-198 0 -264 208zM175 1132 q19 106 68 158.5t129 52.5q46 -1 113 -24q64 -23 112 -23h4q36 0 58 20t36 66h54q-20 -103 -68.5 -154t-126.5 -51h-4q-50 0 -113 23q-66 24 -114 24q-39 0 -60.5 -20.5t-33.5 -71.5h-54zM262 280q0 -132 140 -152l16 -4q236 27 236 236v136h-40q-265 0 -336 -128 q-16 -38 -16 -76v-12z" />
<glyph unicode="&#xe4;" horiz-adv-x="922" d="M90 252v28q0 250 348 320q90 16 200 16h12q0 182 -108 216q-49 16 -84 16h-32q-115 0 -228 -68q-20 36 -20 60v20q0 85 260 116h40q242 0 332 -312q12 -114 12 -204v-260q0 -79 12 -176l-4 -4h-80q-84 0 -84 116q-149 -136 -268 -136h-40q-198 0 -264 208zM172 1263 q0 13 14 26l71 72q13 12 25 12q11 0 27 -14l69 -73q10 -14 10 -25q0 -13 -12 -27l-69 -75q-17 -17 -25 -17q-14 0 -25 12l-76 86q-9 12 -9 23zM262 280q0 -132 140 -152l16 -4q236 27 236 236v136h-40q-265 0 -336 -128q-16 -38 -16 -76v-12zM537 1263q0 13 14 26l71 72 q13 12 25 12q11 0 27 -13l69 -74q10 -14 10 -25q0 -13 -12 -26l-69 -76q-17 -17 -25 -17q-14 0 -25 12l-76 87q-9 11 -9 22z" />
<glyph unicode="&#xe5;" horiz-adv-x="922" d="M90 252v28q0 250 348 320q90 16 200 16h12q0 182 -108 216q-49 16 -84 16h-32q-115 0 -228 -68q-20 36 -20 60v20q0 85 260 116h40q242 0 332 -312q12 -114 12 -204v-260q0 -79 12 -176l-4 -4h-80q-84 0 -84 116q-149 -136 -268 -136h-40q-198 0 -264 208zM262 280 q0 -132 140 -152l16 -4q236 27 236 236v136h-40q-265 0 -336 -128q-16 -38 -16 -76v-12zM285 1257q0 75 51 126t125 51q76 0 127.5 -51.5t51.5 -125.5q0 -75 -51.5 -126.5t-127.5 -51.5q-74 0 -125 51.5t-51 126.5zM361 1257q0 -42 29 -71t71 -29t71 29t29 71 q0 40 -29.5 69.5t-70.5 29.5t-70.5 -29.5t-29.5 -69.5z" />
<glyph unicode="&#xe6;" horiz-adv-x="1375" d="M90 252v28q0 250 348 320q90 16 200 16h12q0 182 -108 216q-49 16 -84 16h-32q-115 0 -228 -68q-20 36 -20 60v20q0 85 260 116h40q242 0 332 -312q12 -114 12 -204v-260q0 -79 12 -176l-4 -4h-80q-84 0 -84 116q-149 -136 -268 -136h-40q-198 0 -264 208zM262 280 q0 -132 140 -152l16 -4q236 27 236 236v136h-40q-265 0 -336 -128q-16 -38 -16 -76v-12zM546 456v36q0 320 280 460q84 24 144 24h36q255 0 344 -288q20 -59 20 -140v-44q-9 -48 -80 -48h-580v-4q0 -215 180 -292q36 -20 136 -28q132 0 260 48q16 -38 16 -72q0 -80 -144 -96 q-48 -12 -120 -12h-52q-286 0 -404 264q-36 90 -36 192zM730 628q0 -43 56 -48h420v4q0 181 -140 252q-46 16 -80 16h-28q-144 0 -228 -216v-8z" />
<glyph unicode="&#xe7;" horiz-adv-x="905" d="M80 464v40q0 284 272 428q105 44 212 44h32q125 0 220 -48q-14 -108 -76 -108h-8q-71 20 -156 20q-218 0 -304 -220q-20 -78 -20 -136q0 -249 228 -332q50 -12 88 -12h20q74 0 156 24q68 -13 68 -108q-115 -56 -268 -56q-328 0 -440 308q-24 72 -24 156zM244 -290 q85 -52 152 -52q66 0 94.5 21.5t28.5 66.5t-49 64q-40 16 -102 16q-16 0 -34 -2l48 176h63l-37 -104q32 4 62 5q86 0 134 -40.5t48 -113.5q0 -76 -58.5 -120.5t-160.5 -44.5q-109 0 -189 32v96z" />
<glyph unicode="&#xe8;" horiz-adv-x="909" d="M80 456v36q0 320 280 460q84 24 144 24h36q255 0 344 -288q20 -59 20 -140v-44q-9 -48 -80 -48h-580v-4q0 -215 180 -292q36 -20 136 -28q132 0 260 48q16 -38 16 -72q0 -80 -144 -96q-48 -12 -120 -12h-52q-286 0 -404 264q-36 90 -36 192zM185 1363q0 31 20.5 51 t53.5 20q20 0 40.5 -12t55.5 -47l291 -296h-69l-330 202q-31 20 -46.5 40t-15.5 42zM264 628q0 -43 56 -48h420v4q0 181 -140 252q-46 16 -80 16h-28q-144 0 -228 -216v-8z" />
<glyph unicode="&#xe9;" horiz-adv-x="909" d="M80 456v36q0 320 280 460q84 24 144 24h36q255 0 344 -288q20 -59 20 -140v-44q-9 -48 -80 -48h-580v-4q0 -215 180 -292q36 -20 136 -28q132 0 260 48q16 -38 16 -72q0 -80 -144 -96q-48 -12 -120 -12h-52q-286 0 -404 264q-36 90 -36 192zM264 628q0 -43 56 -48h420v4 q0 181 -140 252q-46 16 -80 16h-28q-144 0 -228 -216v-8zM338 1078l291 297q35 35 55.5 47t40.5 12q33 0 53.5 -20t20.5 -51q0 -22 -15.5 -42t-46.5 -40l-330 -203h-69z" />
<glyph unicode="&#xea;" horiz-adv-x="909" d="M80 456v36q0 320 280 460q84 24 144 24h36q255 0 344 -288q20 -59 20 -140v-44q-9 -48 -80 -48h-580v-4q0 -215 180 -292q36 -20 136 -28q132 0 260 48q16 -38 16 -72q0 -80 -144 -96q-48 -12 -120 -12h-52q-286 0 -404 264q-36 90 -36 192zM201 1079l232 355h118 l232 -355h-58l-233 216l-233 -216h-58zM264 628q0 -43 56 -48h420v4q0 181 -140 252q-46 16 -80 16h-28q-144 0 -228 -216v-8z" />
<glyph unicode="&#xeb;" horiz-adv-x="909" d="M80 456v36q0 320 280 460q84 24 144 24h36q255 0 344 -288q20 -59 20 -140v-44q-9 -48 -80 -48h-580v-4q0 -215 180 -292q36 -20 136 -28q132 0 260 48q16 -38 16 -72q0 -80 -144 -96q-48 -12 -120 -12h-52q-286 0 -404 264q-36 90 -36 192zM202 1263q0 13 14 26l71 72 q13 12 25 12q11 0 27 -14l69 -73q10 -14 10 -25q0 -13 -12 -27l-69 -75q-17 -17 -25 -17q-14 0 -25 12l-76 86q-9 12 -9 23zM264 628q0 -43 56 -48h420v4q0 181 -140 252q-46 16 -80 16h-28q-144 0 -228 -216v-8zM567 1263q0 13 14 26l71 72q13 12 25 12q11 0 27 -13l69 -74 q10 -14 10 -25q0 -13 -12 -26l-69 -76q-17 -17 -25 -17q-14 0 -25 12l-76 87q-9 11 -9 22z" />
<glyph unicode="&#xec;" horiz-adv-x="514" d="M-61 1363q0 31 20.5 51t53.5 20q20 0 40.5 -12t55.5 -47l291 -296h-69l-330 202q-31 20 -46.5 40t-15.5 42zM140 1184v28q21 92 92 92h28q78 0 92 -108q0 -68 -64 -96l-48 -8q-100 17 -100 92zM160 76v784q13 76 72 76h28q72 -14 72 -72v-796q0 -53 -76 -68h-20 q-76 12 -76 76z" />
<glyph unicode="&#xed;" horiz-adv-x="514" d="M93 1078l291 297q35 35 55.5 47t40.5 12q33 0 53.5 -20t20.5 -51q0 -22 -15.5 -42t-46.5 -40l-330 -203h-69zM140 1184v28q21 92 92 92h28q78 0 92 -108q0 -68 -64 -96l-48 -8q-100 17 -100 92zM160 76v784q13 76 72 76h28q72 -14 72 -72v-796q0 -53 -76 -68h-20 q-76 12 -76 76z" />
<glyph unicode="&#xee;" horiz-adv-x="514" d="M-44 1079l232 355h118l232 -355h-58l-233 216l-233 -216h-58zM141 1184v28q21 92 92 92h28q78 0 92 -108q0 -68 -64 -96l-48 -8q-100 17 -100 92zM161 76v784q13 76 72 76h28q72 -14 72 -72v-796q0 -53 -76 -68h-20q-76 12 -76 76z" />
<glyph unicode="&#xef;" horiz-adv-x="514" d="M-44 1263q0 13 14 26l71 72q13 12 25 12q11 0 27 -14l69 -73q10 -14 10 -25q0 -13 -12 -27l-69 -75q-17 -17 -25 -17q-14 0 -25 12l-76 86q-9 12 -9 23zM140 1184v28q21 92 92 92h28q78 0 92 -108q0 -68 -64 -96l-48 -8q-100 17 -100 92zM160 76v784q13 76 72 76h28 q72 -14 72 -72v-796q0 -53 -76 -68h-20q-76 12 -76 76zM321 1263q0 13 14 26l71 72q13 12 25 12q11 0 27 -13l69 -74q10 -14 10 -25q0 -13 -12 -26l-69 -76q-17 -17 -25 -17q-14 0 -25 12l-76 87q-9 11 -9 22z" />
<glyph unicode="&#xf0;" horiz-adv-x="1139" />
<glyph unicode="&#xf1;" horiz-adv-x="1108" d="M160 932l4 4h72q71 0 80 -84l4 -64h4q147 168 300 168h20q226 0 308 -260q12 -79 12 -144v-484q0 -52 -72 -68h-28q-72 15 -72 72v372q0 312 -172 364l-44 8q-150 0 -228 -176l-8 -60v-492q-9 -88 -68 -88h-32q-72 15 -72 64v536zM275 1132q19 106 68 158.5t129 52.5 q46 -1 113 -24q64 -23 112 -23h4q36 0 58 20t36 66h54q-20 -103 -68.5 -154t-126.5 -51h-4q-50 0 -113 23q-66 24 -114 24q-39 0 -60.5 -20.5t-33.5 -71.5h-54z" />
<glyph unicode="&#xf2;" horiz-adv-x="1010" d="M50 464v36q0 296 256 432q90 44 188 44h28q315 0 424 -328q16 -70 16 -120v-60q0 -289 -256 -424q-94 -44 -188 -44h-48q-158 0 -292 128q-128 138 -128 336zM199 1363q0 31 20.5 51t53.5 20q20 0 40.5 -12t55.5 -47l291 -296h-69l-330 202q-31 20 -46.5 40t-15.5 42z M222 480q0 -231 184 -332q48 -20 104 -20q178 0 256 220q16 34 24 140q0 233 -176 340q-64 20 -108 20q-186 0 -260 -212q-24 -75 -24 -156z" />
<glyph unicode="&#xf3;" horiz-adv-x="1010" d="M50 464v36q0 296 256 432q90 44 188 44h28q315 0 424 -328q16 -70 16 -120v-60q0 -289 -256 -424q-94 -44 -188 -44h-48q-158 0 -292 128q-128 138 -128 336zM222 480q0 -231 184 -332q48 -20 104 -20q178 0 256 220q16 34 24 140q0 233 -176 340q-64 20 -108 20 q-186 0 -260 -212q-24 -75 -24 -156zM352 1078l291 297q35 35 55.5 47t40.5 12q33 0 53.5 -20t20.5 -51q0 -22 -15.5 -42t-46.5 -40l-330 -203h-69z" />
<glyph unicode="&#xf4;" horiz-adv-x="1010" d="M50 464v36q0 296 256 432q90 44 188 44h28q315 0 424 -328q16 -70 16 -120v-60q0 -289 -256 -424q-94 -44 -188 -44h-48q-158 0 -292 128q-128 138 -128 336zM215 1079l232 355h118l232 -355h-58l-233 216l-233 -216h-58zM222 480q0 -231 184 -332q48 -20 104 -20 q178 0 256 220q16 34 24 140q0 233 -176 340q-64 20 -108 20q-186 0 -260 -212q-24 -75 -24 -156z" />
<glyph unicode="&#xf5;" horiz-adv-x="1010" d="M50 464v36q0 296 256 432q90 44 188 44h28q315 0 424 -328q16 -70 16 -120v-60q0 -289 -256 -424q-94 -44 -188 -44h-48q-158 0 -292 128q-128 138 -128 336zM219 1132q19 106 68 158.5t129 52.5q46 -1 113 -24q64 -23 112 -23h4q36 0 58 20t36 66h54 q-20 -103 -68.5 -154t-126.5 -51h-4q-50 0 -113 23q-66 24 -114 24q-39 0 -60.5 -20.5t-33.5 -71.5h-54zM222 480q0 -231 184 -332q48 -20 104 -20q178 0 256 220q16 34 24 140q0 233 -176 340q-64 20 -108 20q-186 0 -260 -212q-24 -75 -24 -156z" />
<glyph unicode="&#xf6;" horiz-adv-x="1010" d="M50 464v36q0 296 256 432q90 44 188 44h28q315 0 424 -328q16 -70 16 -120v-60q0 -289 -256 -424q-94 -44 -188 -44h-48q-158 0 -292 128q-128 138 -128 336zM216 1263q0 13 14 26l71 72q13 12 25 12q11 0 27 -14l69 -73q10 -14 10 -25q0 -13 -12 -27l-69 -75 q-17 -17 -25 -17q-14 0 -25 12l-76 86q-9 12 -9 23zM222 480q0 -231 184 -332q48 -20 104 -20q178 0 256 220q16 34 24 140q0 233 -176 340q-64 20 -108 20q-186 0 -260 -212q-24 -75 -24 -156zM581 1263q0 13 14 26l71 72q13 12 25 12q11 0 27 -13l69 -74q10 -14 10 -25 q0 -13 -12 -26l-69 -76q-17 -17 -25 -17q-14 0 -25 12l-76 87q-9 11 -9 22z" />
<glyph unicode="&#xf7;" d="M87 638v24q25 44 72 44h288q76 0 76 88v296q11 68 56 68h12q45 0 56 -68v-296q0 -88 76 -88h288q72 -11 72 -56v-8q0 -50 -88 -56h-276q-72 -10 -72 -76v-312q-10 -68 -64 -68h-4q-56 15 -56 68v300q0 75 -64 88h-280q-92 6 -92 52zM560 332v16q16 80 80 80h16 q68 0 80 -92q0 -71 -92 -84q-84 16 -84 80zM560 1003v16q16 80 80 80h16q68 0 80 -92q0 -71 -92 -84q-84 16 -84 80z" />
<glyph unicode="&#xf8;" horiz-adv-x="1010" d="M50 464v36q0 296 256 432q90 44 188 44h28q315 0 424 -328q16 -70 16 -120v-60q0 -289 -256 -424q-94 -44 -188 -44h-48q-158 0 -292 128q-128 138 -128 336zM153 16v20q479 1263 504 1304q43 40 68 40h16q33 0 40 -44q-16 -61 -500 -1304q-41 -52 -84 -52h-8 q-36 5 -36 36zM222 480q0 -231 184 -332q48 -20 104 -20q178 0 256 220q16 34 24 140q0 233 -176 340q-64 20 -108 20q-186 0 -260 -212q-24 -75 -24 -156z" />
<glyph unicode="&#xf9;" horiz-adv-x="1059" d="M110 388v504q18 64 64 64h36q65 0 72 -88v-356q0 -288 156 -360q16 -8 44 -8h16q147 0 220 172l8 60v504q13 76 72 76h36q49 0 64 -72v-600l8 -260l-4 -4h-72q-88 0 -88 148q-98 -117 -184 -148q-69 -20 -124 -20h-12q-220 0 -292 236q-20 64 -20 152zM201 1363 q0 31 20.5 51t53.5 20q20 0 40.5 -12t55.5 -47l291 -296h-69l-330 202q-31 20 -46.5 40t-15.5 42z" />
<glyph unicode="&#xfa;" horiz-adv-x="1059" d="M110 388v504q18 64 64 64h36q65 0 72 -88v-356q0 -288 156 -360q16 -8 44 -8h16q147 0 220 172l8 60v504q13 76 72 76h36q49 0 64 -72v-600l8 -260l-4 -4h-72q-88 0 -88 148q-98 -117 -184 -148q-69 -20 -124 -20h-12q-220 0 -292 236q-20 64 -20 152zM354 1078l291 297 q35 35 55.5 47t40.5 12q33 0 53.5 -20t20.5 -51q0 -22 -15.5 -42t-46.5 -40l-330 -203h-69z" />
<glyph unicode="&#xfb;" horiz-adv-x="1059" d="M110 388v504q18 64 64 64h36q65 0 72 -88v-356q0 -288 156 -360q16 -8 44 -8h16q147 0 220 172l8 60v504q13 76 72 76h36q49 0 64 -72v-600l8 -260l-4 -4h-72q-88 0 -88 148q-98 -117 -184 -148q-69 -20 -124 -20h-12q-220 0 -292 236q-20 64 -20 152zM217 1079l232 355 h118l232 -355h-58l-233 216l-233 -216h-58z" />
<glyph unicode="&#xfc;" horiz-adv-x="1059" d="M110 388v504q18 64 64 64h36q65 0 72 -88v-356q0 -288 156 -360q16 -8 44 -8h16q147 0 220 172l8 60v504q13 76 72 76h36q49 0 64 -72v-600l8 -260l-4 -4h-72q-88 0 -88 148q-98 -117 -184 -148q-69 -20 -124 -20h-12q-220 0 -292 236q-20 64 -20 152zM218 1263 q0 13 14 26l71 72q13 12 25 12q11 0 27 -14l69 -73q10 -14 10 -25q0 -13 -12 -27l-69 -75q-17 -17 -25 -17q-14 0 -25 12l-76 86q-9 12 -9 23zM583 1263q0 13 14 26l71 72q13 12 25 12q11 0 27 -13l69 -74q10 -14 10 -25q0 -13 -12 -26l-69 -76q-17 -17 -25 -17 q-14 0 -25 12l-76 87q-9 11 -9 22z" />
<glyph unicode="&#xfd;" horiz-adv-x="868" d="M30 874v16q0 36 48 40h48q86 0 132 -180q132 -329 196 -556q7 1 120 360l116 328q44 48 84 48h40q48 -4 48 -40v-12q0 -23 -268 -708q-184 -404 -284 -492q-110 -94 -208 -108q-13 21 -24 80v28q0 43 108 100q127 107 164 212q12 12 12 44zM292 1078l291 297 q35 35 55.5 47t40.5 12q33 0 53.5 -20t20.5 -51q0 -22 -15.5 -42t-46.5 -40l-330 -203h-69z" />
<glyph unicode="&#xfe;" horiz-adv-x="1010" d="M50 906l4 4h76q68 0 76 -84l4 -60v-4l8 -8q165 176 312 176h32q238 0 356 -288q24 -103 24 -172v-28q0 -356 -300 -472q-58 -16 -104 -16h-40q-168 0 -264 140h-4l-4 -28v-408q0 -58 -88 -68q-80 11 -80 72v812zM210 72v1236q18 64 64 64h36q65 0 72 -88v-1196 q0 -88 -88 -88h-8q-76 13 -76 72zM226 370q0 -211 200 -276l60 -8q195 0 268 220q16 72 16 132v12q0 247 -192 332l-84 12q-183 0 -256 -212q-12 -36 -12 -172v-40z" />
<glyph unicode="&#xff;" horiz-adv-x="868" d="M30 874v16q0 36 48 40h48q86 0 132 -180q132 -329 196 -556q7 1 120 360l116 328q44 48 84 48h40q48 -4 48 -40v-12q0 -23 -268 -708q-184 -404 -284 -492q-110 -94 -208 -108q-13 21 -24 80v28q0 43 108 100q127 107 164 212q12 12 12 44zM156 1263q0 13 14 26l71 72 q13 12 25 12q11 0 27 -14l69 -73q10 -14 10 -25q0 -13 -12 -27l-69 -75q-17 -17 -25 -17q-14 0 -25 12l-76 86q-9 12 -9 23zM521 1263q0 13 14 26l71 72q13 12 25 12q11 0 27 -13l69 -74q10 -14 10 -25q0 -13 -12 -26l-69 -76q-17 -17 -25 -17q-14 0 -25 12l-76 87 q-9 11 -9 22z" />
<glyph unicode="&#x152;" horiz-adv-x="2765" d="M210 644v36q0 407 328 600q124 64 260 64h28q351 0 512 -340q60 -139 60 -284v-76q0 -349 -272 -552q-151 -92 -324 -92h-12q-387 0 -544 404q-36 123 -36 240zM390 660q0 -307 216 -464q90 -56 184 -56h28q267 0 376 336q20 64 28 200q0 316 -224 480q-90 48 -172 48 h-40q-218 0 -336 -244q-60 -134 -60 -300zM1824 64v1172q18 64 64 64h576q51 0 64 -72v-4q0 -50 -68 -64h-368q-100 0 -100 -80v-252q11 -80 80 -80h356q72 -11 72 -72q0 -54 -76 -68h-356q-76 0 -76 -88v-300q0 -80 92 -80h408q51 0 64 -68v-4q-11 -68 -68 -68h-596 q-68 14 -68 64z" />
<glyph unicode="&#x153;" horiz-adv-x="1919" d="M50 464v36q0 296 256 432q90 44 188 44h28q315 0 424 -328q16 -70 16 -120v-60q0 -289 -256 -424q-94 -44 -188 -44h-48q-158 0 -292 128q-128 138 -128 336zM222 480q0 -231 184 -332q48 -20 104 -20q178 0 256 220q16 34 24 140q0 233 -176 340q-64 20 -108 20 q-186 0 -260 -212q-24 -75 -24 -156zM1090 456v36q0 320 280 460q84 24 144 24h36q255 0 344 -288q20 -59 20 -140v-44q-9 -48 -80 -48h-580v-4q0 -215 180 -292q36 -20 136 -28q132 0 260 48q16 -38 16 -72q0 -80 -144 -96q-48 -12 -120 -12h-52q-286 0 -404 264 q-36 90 -36 192zM1274 628q0 -43 56 -48h420v4q0 181 -140 252q-46 16 -80 16h-28q-144 0 -228 -216v-8z" />
<glyph unicode="&#x178;" horiz-adv-x="1233" d="M120 1256v20q14 24 36 24h60q92 0 168 -200q208 -396 208 -420h4q6 1 148 292l156 288q48 40 84 40h60q22 0 36 -24v-12q0 -24 -112 -208q-263 -444 -276 -484q-20 -60 -20 -136v-368q-14 -68 -60 -68h-48q-57 0 -64 96v380q0 103 -124 304q-239 428 -256 476zM309 1587 q0 13 14 26l71 72q13 12 25 12q11 0 27 -14l69 -73q10 -14 10 -25q0 -13 -12 -27l-69 -75q-17 -17 -25 -17q-14 0 -25 12l-76 86q-9 12 -9 23zM674 1587q0 13 14 26l71 72q13 12 25 12q11 0 27 -13l69 -74q10 -14 10 -25q0 -13 -12 -26l-69 -76q-17 -17 -25 -17 q-14 0 -25 12l-76 87q-9 11 -9 22z" />
<glyph unicode="&#x2c6;" horiz-adv-x="1024" d="M221 1079l232 355h118l232 -355h-58l-233 216l-233 -216h-58z" />
<glyph unicode="&#x2dc;" horiz-adv-x="1024" d="M234 1132q19 106 68 158.5t129 52.5q46 -1 113 -24q64 -23 112 -23h4q36 0 58 20t36 66h54q-20 -103 -68.5 -154t-126.5 -51h-4q-50 0 -113 23q-66 24 -114 24q-39 0 -60.5 -20.5t-33.5 -71.5h-54z" />
<glyph unicode="&#x2013;" horiz-adv-x="1108" d="M56 419v120h996v-120h-996z" />
<glyph unicode="&#x2014;" horiz-adv-x="2048" d="M0 419v120h2048v-120h-2048z" />
<glyph unicode="&#x2018;" horiz-adv-x="557" d="M186 1233q0 109 71 226.5t139 117.5v-43q-73 -43 -87 -190q0 -119 129 -161v-42l-119 -125q-44 0 -88.5 65.5t-44.5 151.5z" />
<glyph unicode="&#x2019;" horiz-adv-x="557" d="M119 1410v42l119 125q44 0 88.5 -65.5t44.5 -151.5q0 -109 -71 -226.5t-139 -117.5v43q73 43 87 190q0 119 -129 161z" />
<glyph unicode="&#x201a;" horiz-adv-x="557" d="M119 114v42l119 125q44 0 88.5 -65.5t44.5 -151.5q0 -109 -71 -226.5t-139 -117.5v43q73 43 87 190q0 119 -129 161z" />
<glyph unicode="&#x201c;" horiz-adv-x="910" d="M186 1233q0 109 71 226.5t139 117.5v-43q-73 -43 -87 -190q0 -119 129 -161v-42l-119 -125q-44 0 -88.5 65.5t-44.5 151.5zM539 1233q0 109 71 226.5t139 117.5v-43q-73 -43 -87 -190q0 -119 129 -161v-42l-119 -125q-44 0 -88.5 65.5t-44.5 151.5z" />
<glyph unicode="&#x201d;" horiz-adv-x="910" d="M119 1410v42l119 125q44 0 88.5 -65.5t44.5 -151.5q0 -109 -71 -226.5t-139 -117.5v43q73 43 87 190q0 119 -129 161zM472 1410v42l119 125q44 0 88.5 -65.5t44.5 -151.5q0 -109 -71 -226.5t-139 -117.5v43q73 43 87 190q0 119 -129 161z" />
<glyph unicode="&#x201e;" horiz-adv-x="910" d="M119 114v42l119 125q44 0 88.5 -65.5t44.5 -151.5q0 -109 -71 -226.5t-139 -117.5v43q73 43 87 190q0 119 -129 161zM472 114v42l119 125q44 0 88.5 -65.5t44.5 -151.5q0 -109 -71 -226.5t-139 -117.5v43q73 43 87 190q0 119 -129 161z" />
<glyph unicode="&#x2022;" horiz-adv-x="1024" d="M216 718q0 123 87 209t210 86q122 0 208.5 -86.5t86.5 -208.5t-87.5 -209.5t-209.5 -87.5q-123 0 -209 87t-86 210z" />
<glyph unicode="&#x2026;" horiz-adv-x="2048" d="M129 80v16q16 80 80 80h16q68 0 80 -92q0 -71 -92 -84q-84 16 -84 80zM812 80v16q16 80 80 80h16q68 0 80 -92q0 -71 -92 -84q-84 16 -84 80zM1495 80v16q16 80 80 80h16q68 0 80 -92q0 -71 -92 -84q-84 16 -84 80z" />
<glyph unicode="&#x2039;" horiz-adv-x="631" d="M174 479l342 303h14v-37l-205 -266l205 -266v-37h-14z" />
<glyph unicode="&#x203a;" horiz-adv-x="631" d="M101 176v37l205 266l-205 266v37h14l342 -303l-342 -303h-14z" />
<glyph unicode="&#x20ac;" d="M292 590v24q26 36 64 36h836q55 0 64 -44v-8q-9 -44 -60 -44h-848q-29 0 -56 36zM292 782v24q26 36 64 36h836q55 0 64 -44v-8q-9 -44 -60 -44h-848q-29 0 -56 36zM354 644v40q0 380 282 580q134 80 276 80h34q226 -15 248 -64q-17 -112 -75 -112q-119 36 -180 36 q-314 0 -412 -344q-20 -88 -20 -168v-44q0 -328 231 -460q89 -44 194 -44q65 0 187 36q60 0 75 -116q-114 -64 -293 -64h-3q-378 0 -510 400q-34 112 -34 244z" />
<glyph unicode="&#x2122;" horiz-adv-x="1486" d="M341 1270v6q0 17 29 24h376q29 -7 29 -26v-3q-5 -29 -33 -29h-113q-32 -5 -32 -25v-402q-5 -35 -29 -35h-18q-31 5 -31 27v399q0 36 -34 36h-112q-32 5 -32 28zM775 804q35 480 40 480q14 16 30 16h34q39 0 54 -59q98 -233 135 -367h2q61 184 160 408q22 18 38 18h34 q30 0 35 -34l32 -462q-10 -24 -27 -24h-18q-32 0 -32 64q-20 297 -20 382v2h-2q-67 -188 -171 -429q-17 -15 -34 -17q-38 0 -58 76q-79 194 -133 372h-2q-11 -266 -27 -431q-13 -19 -30 -19h-15q-18 0 -25 24z" />
<glyph unicode="&#xe000;" horiz-adv-x="935" d="M0 935h935v-935h-935v935z" />
<glyph unicode="&#xf001;" horiz-adv-x="1073" d="M0 860v20q0 60 108 60q24 5 24 36q0 189 100 324q96 92 220 92h32q118 -8 128 -32q-11 -108 -60 -108h-88q-164 0 -164 -272q0 -32 68 -44h84q56 0 72 -56v-20q0 -44 -72 -56h-76q-76 -12 -76 -76v-656q-14 -72 -72 -72h-32q-64 18 -64 64v632q0 112 -88 112 q-44 19 -44 52zM699 1184v28q21 92 92 92h28q78 0 92 -108q0 -68 -64 -96l-48 -8q-100 17 -100 92zM719 76v784q13 76 72 76h28q72 -14 72 -72v-796q0 -53 -76 -68h-20q-76 12 -76 76z" />
<glyph unicode="&#xfb01;" horiz-adv-x="1073" d="M0 860v20q0 60 108 60q24 5 24 36q0 189 100 324q96 92 220 92h32q118 -8 128 -32q-11 -108 -60 -108h-88q-164 0 -164 -272q0 -32 68 -44h84q56 0 72 -56v-20q0 -44 -72 -56h-76q-76 -12 -76 -76v-656q-14 -72 -72 -72h-32q-64 18 -64 64v632q0 112 -88 112 q-44 19 -44 52zM699 1184v28q21 92 92 92h28q78 0 92 -108q0 -68 -64 -96l-48 -8q-100 17 -100 92zM719 76v784q13 76 72 76h28q72 -14 72 -72v-796q0 -53 -76 -68h-20q-76 12 -76 76z" />
<glyph unicode="&#xf002;" horiz-adv-x="1081" d="M0 860v20q0 60 108 60q24 5 24 36q0 189 100 324q96 92 220 92h32q118 -8 128 -32q-11 -108 -60 -108h-88q-164 0 -164 -272q0 -32 68 -44h84q56 0 72 -56v-20q0 -44 -72 -56h-76q-76 -12 -76 -76v-656q-14 -72 -72 -72h-32q-64 18 -64 64v632q0 112 -88 112 q-44 19 -44 52zM769 72v1236q18 64 64 64h36q65 0 72 -88v-1196q0 -88 -88 -88h-8q-76 13 -76 72z" />
<glyph unicode="&#xfb02;" horiz-adv-x="1081" d="M0 860v20q0 60 108 60q24 5 24 36q0 189 100 324q96 92 220 92h32q118 -8 128 -32q-11 -108 -60 -108h-88q-164 0 -164 -272q0 -32 68 -44h84q56 0 72 -56v-20q0 -44 -72 -56h-76q-76 -12 -76 -76v-656q-14 -72 -72 -72h-32q-64 18 -64 64v632q0 112 -88 112 q-44 19 -44 52zM769 72v1236q18 64 64 64h36q65 0 72 -88v-1196q0 -88 -88 -88h-8q-76 13 -76 72z" />
<glyph unicode="&#xfb03;" horiz-adv-x="1632" d="M0 860v20q0 60 108 60q24 5 24 36q0 189 100 324q96 92 220 92h32q118 -8 128 -32q-11 -108 -60 -108h-88q-164 0 -164 -272q0 -32 68 -44h84q56 0 72 -56v-20q0 -44 -72 -56h-76q-76 -12 -76 -76v-656q-14 -72 -72 -72h-32q-64 18 -64 64v632q0 112 -88 112 q-44 19 -44 52zM559 860v20q0 60 108 60q24 5 24 36q0 189 100 324q96 92 220 92h32q118 -8 128 -32q-11 -108 -60 -108h-88q-164 0 -164 -272q0 -32 68 -44h84q56 0 72 -56v-20q0 -44 -72 -56h-76q-76 -12 -76 -76v-656q-14 -72 -72 -72h-32q-64 18 -64 64v632 q0 112 -88 112q-44 19 -44 52zM1258 1184v28q21 92 92 92h28q78 0 92 -108q0 -68 -64 -96l-48 -8q-100 17 -100 92zM1278 76v784q13 76 72 76h28q72 -14 72 -72v-796q0 -53 -76 -68h-20q-76 12 -76 76z" />
<glyph unicode="&#xfb04;" horiz-adv-x="1640" d="M0 860v20q0 60 108 60q24 5 24 36q0 189 100 324q96 92 220 92h32q118 -8 128 -32q-11 -108 -60 -108h-88q-164 0 -164 -272q0 -32 68 -44h84q56 0 72 -56v-20q0 -44 -72 -56h-76q-76 -12 -76 -76v-656q-14 -72 -72 -72h-32q-64 18 -64 64v632q0 112 -88 112 q-44 19 -44 52zM559 860v20q0 60 108 60q24 5 24 36q0 189 100 324q96 92 220 92h32q118 -8 128 -32q-11 -108 -60 -108h-88q-164 0 -164 -272q0 -32 68 -44h84q56 0 72 -56v-20q0 -44 -72 -56h-76q-76 -12 -76 -76v-656q-14 -72 -72 -72h-32q-64 18 -64 64v632 q0 112 -88 112q-44 19 -44 52zM1328 72v1236q18 64 64 64h36q65 0 72 -88v-1196q0 -88 -88 -88h-8q-76 13 -76 72z" />
</font>
</defs>
</svg>
